<?xml version="1.0" encoding="utf-8"?>
<!-- Generator: Adobe Illustrator 22.0.1, SVG Export Plug-In . SVG Version: 6.00 Build 0)  -->
<svg version="1.1" id="Layer_1" xmlns="http://www.w3.org/2000/svg" xmlns:xlink="http://www.w3.org/1999/xlink" x="0px" y="0px"
	 viewBox="0 0 950.9 684.1" style="enable-background:new 0 0 950.9 684.1;" xml:space="preserve">
<style type="text/css">
	.st0{fill:#5449D2;stroke:#000000;stroke-miterlimit:10;}
	.st1{fill:url(#SVGID_1_);}
</style>
<path class="st0" d="M41.9,1l0.8-0.5h-0.8C41.9,0.7,41.9,0.8,41.9,1z"/>
<linearGradient id="SVGID_1_" gradientUnits="userSpaceOnUse" x1="42.767" y1="316.6395" x2="958.91" y2="316.6395">
	<stop  offset="0" style="stop-color:#3B95F3"/>
	<stop  offset="1" style="stop-color:#0F3CAA"/>
</linearGradient>
<path class="st1" d="M42.9-8c0,11,0,22.9,0,34.6c0,7.4,0,14.8,0,22.2c0,5.8-0.6,12.4,0.7,17.8c0.4,1.6,0.6,3.2,1.1,4.8
	c0.9,3,2.3,5.8,3.5,8.9c2.2,5.9,5.9,10.6,10.6,14.8c3.8,3.5,7.5,6.1,12,8.4l-2.3-1l890.6,538.9V-8H42.9z"/>
</svg>
