<?xml version="1.0" encoding="utf-8"?>
<!-- Generator: Adobe Illustrator 16.0.0, SVG Export Plug-In . SVG Version: 6.00 Build 0)  -->
<!DOCTYPE svg PUBLIC "-//W3C//DTD SVG 1.1//EN" "http://www.w3.org/Graphics/SVG/1.1/DTD/svg11.dtd">
<svg version="1.1" id="Layer_1" xmlns="http://www.w3.org/2000/svg" xmlns:xlink="http://www.w3.org/1999/xlink" x="0px" y="0px"
	 width="925.454px" height="514.475px" viewBox="0 0 925.454 514.475" enable-background="new 0 0 925.454 514.475"
	 xml:space="preserve">
<path fill="#5449D2" d="M-1461.09-197.609c0,11,0,22.871,0,34.556c0,7.384,0,14.768,0,22.153c0,5.811-0.605,12.392,0.674,17.835
	c0.371,1.577,0.563,3.218,1.052,4.813c0.931,3.036,2.303,5.782,3.473,8.876c2.231,5.906,5.946,10.619,10.592,14.824
	c3.848,3.48,7.518,6.141,11.982,8.362l-2.35-1.018L-545.09,451.67v-649.279H-1461.09z"/>
<path fill="#FE825A" d="M-968.952,451.478c-0.046-0.002-0.092,0-0.138-0.002v1.915L-968.952,451.478z"/>
<path fill="#FE825A" d="M-108.521,823.105c0.094,0.08,0.199,0.15,0.296,0.228l0.135,0.058L-108.521,823.105z"/>
<path fill="#FE825A" d="M871.255,508.454c0.631,0.628,1.175,1.281,1.655,1.953v-64.017l0.311,0.538
	c-0.229-0.443,0.172-1.029,0.084-1.512c-0.089-0.479-0.26-0.928-0.396-1.401c-1.008-3.503-2.552-6.976-4.69-10.035
	c-0.999-1.431-2.318-2.554-3.569-3.75c-1.138-1.09-2.621-1.903-3.874-2.897L-0.09,57.391v457h873L871.255,508.454z"/>
</svg>
