<?xml version="1.0" encoding="utf-8"?>
<!-- Generator: Adobe Illustrator 16.0.0, SVG Export Plug-In . SVG Version: 6.00 Build 0)  -->
<!DOCTYPE svg PUBLIC "-//W3C//DTD SVG 1.1//EN" "http://www.w3.org/Graphics/SVG/1.1/DTD/svg11.dtd">
<svg version="1.1" id="Layer_1" xmlns="http://www.w3.org/2000/svg" xmlns:xlink="http://www.w3.org/1999/xlink" x="0px" y="0px"
	 width="950.91px" height="684.084px" viewBox="0 0 950.91 684.084" enable-background="new 0 0 950.91 684.084"
	 xml:space="preserve">
<path fill="#5449D2" stroke="#000000" stroke-miterlimit="10" d="M41.91,1l0.75-0.5h-0.832C41.855,0.666,41.884,0.836,41.91,1z"/>
<path fill="#5449D2" d="M42.91-8c0,11,0,22.871,0,34.556c0,7.384,0,14.768,0,22.153c0,5.811-0.605,12.392,0.674,17.835
	c0.371,1.577,0.563,3.218,1.052,4.813c0.931,3.036,2.303,5.782,3.473,8.876c2.231,5.906,5.946,10.619,10.592,14.824
	c3.848,3.48,7.518,6.141,11.982,8.362l-2.35-1.018L958.91,641.279V-8H42.91z"/>
<path fill="#FE825A" d="M-968.952,621.087c-0.046-0.002-0.092,0-0.138-0.002V623L-968.952,621.087z"/>
<path fill="#FE825A" d="M-108.521,992.715c0.094,0.08,0.199,0.15,0.296,0.228l0.135,0.058L-108.521,992.715z"/>
<path fill="#FE825A" d="M-1078.446,744.08c0.02,7.629,0.126,15.142,0.356,22.579v-33.605
	C-1078.337,736.831-1078.456,740.525-1078.446,744.08z"/>
<path fill="#FE825A" d="M-96.09,1080v-3.983c-0.48-0.672-1.024-1.325-1.655-1.953L-96.09,1080z"/>
<path fill="#FE825A" d="M-94.083,1080c-0.469-1.387-1.106-2.725-2.007-3.983V1080H-94.083z"/>
<path fill="#FE825A" d="M-97.745,1074.063c0.631,0.628,1.175,1.281,1.655,1.953V1012l0.311,0.538
	c-0.229-0.443,0.172-1.029,0.083-1.512c-0.088-0.479-0.259-0.928-0.395-1.401c-1.008-3.503-2.551-6.976-4.69-10.035
	c-1-1.431-2.318-2.554-3.57-3.75c-1.138-1.09-2.621-1.903-3.874-2.897L-969.09,623v457h873L-97.745,1074.063z"/>
</svg>
