<?xml version="1.0" encoding="utf-8"?>
<!-- Generator: Adobe Illustrator 22.0.1, SVG Export Plug-In . SVG Version: 6.00 Build 0)  -->
<svg version="1.1" xmlns="http://www.w3.org/2000/svg" xmlns:xlink="http://www.w3.org/1999/xlink" x="0px" y="0px"
	 viewBox="0 0 500 200" style="enable-background:new 0 0 500 200;" xml:space="preserve">
<style type="text/css">
	.st0{fill:#FF9900;}
	.st1{fill:none;stroke:#CCCCCC;stroke-width:0.75;stroke-miterlimit:10;}
	.st2{fill:none;stroke:#FFFFFF;stroke-width:2;stroke-miterlimit:10;}
	.st3{fill:#DEE4EA;}
	.st4{fill:#FFFFFF;}
</style>
<g id="Layer_2">
	<g id="Layer_2_1_">
		<path class="st0" d="M308,200H12c-6.6,0-12-5.4-12-12V12C0,5.4,5.4,0,12,0h296c6.6,0,12,5.4,12,12v176
			C320,194.6,314.6,200,308,200z"/>
	</g>
</g>
<g id="Layer_1">
	<line class="st1" x1="0" y1="100" x2="320" y2="100"/>
	<path class="st2" d="M87,57.7C82.8,74.9,65.4,85.3,48.3,81C31.1,76.8,20.7,59.4,25,42.3C29.2,25.1,46.6,14.7,63.7,19
		C80.9,23.2,91.3,40.6,87,57.7z"/>
	<g>
		<path class="st3" d="M17.1,114.2h4.8c1.9,0,3.5,0.5,4.6,1.5s1.7,2.3,1.7,3.9s-0.6,2.9-1.7,3.9S23.9,125,22,125h-2.4v6H17v-16.8
			H17.1z M19.6,122.9h2.5c1.1,0,1.9-0.4,2.5-1s0.9-1.4,0.9-2.3c0-1-0.3-1.8-1-2.4c-0.6-0.6-1.5-0.9-2.7-1h-2.3v6.7H19.6z"/>
		<path class="st3" d="M33.2,118.3v2.2c0.6-1.6,1.7-2.3,3.3-2.3c0.2,0,0.5,0,0.8,0.1v2.4c-0.4-0.1-0.7-0.2-1.2-0.2
			c-0.9,0-1.6,0.4-2.1,1.1s-0.8,1.6-0.8,2.7v6.8h-2.4v-12.7L33.2,118.3L33.2,118.3z"/>
		<path class="st3" d="M39.4,115.5c-0.3-0.3-0.4-0.7-0.4-1.1s0.1-0.8,0.4-1.1c0.3-0.3,0.7-0.4,1.1-0.4s0.8,0.1,1.1,0.4
			s0.5,0.7,0.5,1.1s-0.1,0.8-0.5,1.1c-0.3,0.3-0.7,0.4-1.1,0.4S39.7,115.8,39.4,115.5z M39.3,131v-12.7h2.5V131H39.3z"/>
		<path class="st3" d="M47.1,124.7c0,1.3,0.4,2.3,1.2,3.2s1.8,1.2,3.1,1.2c1,0,1.9-0.3,2.8-0.8v2.2c-0.8,0.5-1.9,0.8-3.1,0.8
			c-2,0-3.6-0.6-4.8-1.9s-1.8-2.8-1.8-4.7c0-1.8,0.6-3.4,1.8-4.7c1.2-1.3,2.8-1.9,4.8-1.9c1.1,0,2.1,0.2,3,0.7v2.3
			c-0.8-0.5-1.7-0.8-2.8-0.8c-1.3,0-2.4,0.4-3.2,1.3C47.5,122.4,47.1,123.4,47.1,124.7z"/>
		<path class="st3" d="M66.5,128.1v2.2c-0.9,0.5-2.2,0.8-3.7,0.8c-2,0-3.5-0.6-4.7-1.8s-1.8-2.7-1.8-4.6c0-2,0.5-3.6,1.6-4.8
			c1.1-1.2,2.4-1.7,4.1-1.7c1.6,0,2.9,0.5,3.8,1.5c1,1,1.4,2.5,1.4,4.4c0,0.5-0.1,1.1-0.1,1.6h-8.3c0.2,1.1,0.6,1.9,1.4,2.5
			s1.7,0.9,2.9,0.9C64.5,129.1,65.6,128.8,66.5,128.1z M65,123.8v-0.5c0-1-0.3-1.7-0.8-2.3c-0.5-0.6-1.2-0.8-2.1-0.8
			c-0.8,0-1.5,0.3-2.1,0.9s-1,1.5-1.1,2.6H65V123.8z"/>
		<path class="st3" d="M82.9,135.9h-2.7c-2.7-3.4-4.1-7.2-4.1-11.4c0-4.2,1.3-7.9,3.9-11.1h2.7c-1.3,1.7-2.3,3.5-2.9,5.4
			c-0.7,2-1,3.9-1,5.8s0.4,3.8,1.1,5.8S81.6,134.2,82.9,135.9z"/>
		<path class="st3" d="M94.5,124.6v-10.4h2.6v10.4c0,2.2-0.6,3.8-1.7,5c-1.1,1.1-2.7,1.7-4.7,1.7s-3.5-0.6-4.6-1.7
			c-1.1-1.1-1.7-2.7-1.7-4.8v-10.6H87v10.6c0,1.4,0.3,2.5,1,3.1c0.7,0.7,1.6,1,2.7,1C93.3,128.8,94.5,127.4,94.5,124.6z"/>
		<path class="st3" d="M109.8,114.8v2.5c-1.1-0.7-2.4-1-3.8-1c-0.9,0-1.6,0.2-2.2,0.6s-0.8,0.9-0.8,1.6s0.3,1.2,0.8,1.6
			s1.3,0.8,2.4,1.3c0.7,0.3,1.2,0.6,1.6,0.8c0.4,0.2,0.8,0.5,1.4,0.9c0.5,0.4,0.9,0.9,1.1,1.4s0.4,1.2,0.4,1.9
			c0,1.5-0.5,2.6-1.6,3.5c-1.1,0.8-2.4,1.3-4.1,1.3c-1.9,0-3.4-0.4-4.6-1.1v-2.7c1.3,1,2.8,1.5,4.6,1.5c0.9,0,1.6-0.2,2.2-0.6
			s0.8-1,0.8-1.8c0-0.5-0.2-0.9-0.5-1.2c-0.3-0.4-0.7-0.7-1-0.9c-0.4-0.2-0.9-0.5-1.6-0.8c-0.4-0.2-0.7-0.3-0.9-0.4
			c-0.2-0.1-0.5-0.2-0.9-0.5c-0.4-0.2-0.7-0.4-0.9-0.5c-0.2-0.2-0.4-0.4-0.7-0.6c-0.3-0.3-0.5-0.5-0.6-0.8s-0.2-0.6-0.4-0.9
			s-0.2-0.7-0.2-1.2c0-1.4,0.5-2.6,1.6-3.4c1-0.8,2.4-1.3,4-1.3C107.5,114,108.8,114.3,109.8,114.8z"/>
		<path class="st3" d="M113.7,114.2h5.3c2.5,0,4.5,0.8,6.1,2.3c1.6,1.6,2.4,3.5,2.4,5.9c0,2.5-0.8,4.6-2.3,6.2s-3.6,2.4-6.2,2.4
			h-5.3V114.2z M116.4,128.8h2.6c1.9,0,3.4-0.6,4.4-1.8s1.5-2.7,1.5-4.6c0-1.7-0.5-3.2-1.6-4.3c-1.1-1.2-2.5-1.7-4.3-1.7h-2.6V128.8
			z"/>
		<path class="st3" d="M131.1,113.3c2.6,3.3,3.9,7,3.9,11.1c0,4.2-1.3,8-4,11.4h-2.7c1.3-1.7,2.4-3.5,3.1-5.5s1.1-3.9,1.1-5.8
			s-0.3-3.9-1-5.8c-0.7-2-1.6-3.8-2.9-5.5h2.5V113.3z"/>
	</g>
	<g>
		<path class="st3" d="M180.6,116.2l-5.8,16.8h-3l-5.7-16.8h2.8l2.1,6.7c0.5,1.4,0.9,2.8,1.3,4.1c0.4,1.3,0.6,2.3,0.8,2.8l0.3,0.9
			c0.5-2,1.3-4.6,2.4-7.9l2.2-6.7h2.6V116.2z"/>
		<path class="st3" d="M188.3,133.2c-1.9,0-3.3-0.6-4.4-1.8c-1.1-1.2-1.6-2.8-1.6-4.6c0-1.9,0.6-3.5,1.6-4.7
			c1.1-1.3,2.6-1.9,4.4-1.9c1.9,0,3.4,0.6,4.5,1.8c1,1.2,1.6,2.8,1.6,4.7s-0.5,3.5-1.6,4.7C191.7,132.6,190.2,133.2,188.3,133.2z
			 M188.3,122.2c-1.1,0-1.9,0.4-2.5,1.3s-0.9,1.9-0.9,3.2c0,1.3,0.3,2.3,0.9,3.2c0.6,0.9,1.5,1.3,2.5,1.3c1.1,0,2-0.4,2.6-1.3
			c0.6-0.8,0.9-1.9,0.9-3.2c0-1.3-0.3-2.4-0.9-3.2C190.4,122.6,189.5,122.2,188.3,122.2z"/>
		<path class="st3" d="M197.3,133v-17.7h2.5V133H197.3z"/>
		<path class="st3" d="M211.1,120.3h2.4V133h-2.4v-2.2c-0.7,1.5-2,2.3-4,2.3c-1.3,0-2.2-0.4-3-1.1c-0.7-0.7-1.1-1.8-1.1-3.1v-8.6
			h2.5v8c0,0.9,0.2,1.5,0.6,2c0.4,0.5,1,0.7,1.8,0.7c0.9,0,1.7-0.3,2.3-1s0.9-1.6,0.9-2.8V120.3z"/>
		<path class="st3" d="M219.5,120.3v2c0.7-1.5,1.9-2.2,3.6-2.2c1.9,0,3.1,0.8,3.6,2.4c0.4-0.8,0.9-1.4,1.5-1.8
			c0.7-0.4,1.4-0.6,2.3-0.6c1.3,0,2.3,0.4,3,1.1c0.7,0.8,1,1.8,1,3.2v8.5H232v-8c0-1.8-0.7-2.7-2.2-2.7c-0.7,0-1.4,0.3-2,1
			s-0.9,1.6-0.9,2.9v6.9h-2.4v-8c0-1.8-0.7-2.7-2.2-2.7c-0.7,0-1.4,0.3-2,1s-0.9,1.6-0.9,2.9v6.9H217v-12.7h2.5V120.3z"/>
		<path class="st3" d="M247.2,130.1v2.2c-0.9,0.5-2.2,0.8-3.7,0.8c-2,0-3.5-0.6-4.7-1.8s-1.8-2.7-1.8-4.6c0-2,0.5-3.6,1.6-4.8
			c1.1-1.2,2.4-1.7,4.1-1.7c1.6,0,2.9,0.5,3.8,1.5c1,1,1.4,2.5,1.4,4.4c0,0.5-0.1,1.1-0.1,1.6h-8.3c0.2,1.1,0.6,1.9,1.4,2.5
			s1.7,0.9,2.9,0.9C245.2,131.1,246.3,130.8,247.2,130.1z M245.7,125.8v-0.5c0-1-0.3-1.7-0.8-2.3c-0.5-0.6-1.2-0.8-2.1-0.8
			c-0.8,0-1.5,0.3-2.1,0.9s-1,1.5-1.1,2.6h6.1V125.8z"/>
		<path class="st3" d="M263.6,137.9h-2.7c-2.7-3.4-4.1-7.2-4.1-11.4c0-4.2,1.3-7.9,3.9-11.1h2.7c-1.3,1.7-2.3,3.5-2.9,5.4
			c-0.7,2-1,3.9-1,5.8s0.3,3.8,1.1,5.8C261.3,134.4,262.3,136.2,263.6,137.9z"/>
		<path class="st3" d="M265.1,116.2h5.5c1.8,0,3.2,0.4,4.2,1.2s1.5,1.9,1.5,3.3c0,0.9-0.3,1.8-0.8,2.4c-0.5,0.7-1.2,1.2-2,1.4
			c0.9,0.2,1.7,0.6,2.3,1.3c0.6,0.7,0.9,1.6,0.9,2.8c0,1.3-0.5,2.4-1.4,3.3c-0.9,0.8-2.2,1.3-3.8,1.3H265L265.1,116.2L265.1,116.2z
			 M267.7,118.3v5.2h2.3c1.3,0,2.2-0.3,2.8-0.8c0.6-0.5,0.9-1.2,0.9-2c0-0.7-0.3-1.3-0.8-1.8s-1.4-0.7-2.5-0.7h-2.7V118.3z
			 M267.7,130.9h3.3c2.1,0,3.2-0.9,3.2-2.6c0-0.8-0.3-1.5-0.9-2s-1.4-0.7-2.6-0.7h-3V130.9z"/>
		<path class="st3" d="M289.8,116.2v2.1h-4.4V133h-2.6v-14.7h-4.4v-2.1C278.4,116.2,289.8,116.2,289.8,116.2z"/>
		<path class="st3" d="M304.3,116.8v2.5c-0.7-0.4-1.4-0.7-2-0.8c-0.6-0.2-1.3-0.2-2.3-0.2c-1.7,0-3.1,0.6-4.2,1.7s-1.7,2.7-1.7,4.5
			c0,1.9,0.6,3.4,1.7,4.6c1.1,1.1,2.6,1.7,4.4,1.7c1.6,0,3-0.4,4.1-1.3v2.6c-1,0.7-2.5,1-4.3,1c-2.5,0-4.6-0.8-6.2-2.4
			c-1.6-1.6-2.4-3.7-2.4-6.3c0-2.5,0.8-4.6,2.4-6.2s3.6-2.4,6.1-2.4C301.8,115.9,303.2,116.2,304.3,116.8z"/>
		<path class="st3" d="M308,115.3c2.6,3.3,3.8,7,3.8,11.1c0,4.2-1.3,8-4,11.4h-2.7c1.3-1.7,2.4-3.5,3.1-5.5s1.1-3.9,1.1-5.8
			c0-1.9-0.3-3.9-1-5.8c-0.7-2-1.6-3.8-2.9-5.5h2.6V115.3z"/>
	</g>
	<path class="st4" d="M29,150.7v3.7c-1.6-1-3.4-1.5-5.5-1.5c-1.3,0-2.4,0.3-3.1,0.9c-0.7,0.6-1.1,1.4-1.1,2.3c0,0.5,0.1,1,0.3,1.4
		c0.2,0.4,0.6,0.8,1.2,1.2s1,0.7,1.4,0.8s1,0.5,1.9,0.9s1.7,0.8,2.2,1.1c0.6,0.3,1.2,0.8,1.9,1.3c0.7,0.6,1.2,1.2,1.5,2
		s0.5,1.6,0.5,2.6c0,1.9-0.6,3.5-1.8,4.7c-1.2,1.2-2.9,1.9-4.9,2.1v3.9h-3v-3.9c-2-0.2-3.6-0.7-5-1.5v-3.9c1.9,1.4,4.1,2.1,6.6,2.1
		c1.3,0,2.4-0.3,3.2-0.9c0.8-0.6,1.2-1.5,1.2-2.5c0-0.3,0-0.5-0.1-0.7c0-0.2-0.1-0.5-0.3-0.7c-0.1-0.2-0.3-0.4-0.4-0.6
		c-0.1-0.2-0.3-0.3-0.6-0.5c-0.3-0.2-0.5-0.3-0.6-0.4c-0.2-0.1-0.4-0.3-0.8-0.4c-0.4-0.2-0.6-0.3-0.8-0.4c-0.2-0.1-0.5-0.2-0.9-0.4
		c-0.5-0.2-0.8-0.3-0.9-0.4c-1.8-0.8-3.1-1.7-4.1-2.7s-1.5-2.3-1.5-4.1c0-1.9,0.6-3.4,1.9-4.6c1.3-1.2,3-1.9,5-2.1v-3.9h3.1v3.9
		C26.8,149.9,28,150.2,29,150.7z"/>
	<path class="st4" d="M71.2,46c0.6-4.3-2.6-6.5-7-8.1l1.4-5.8l-3.5-0.9l-1.4,5.6c-0.9-0.2-1.9-0.4-2.8-0.7l1.4-5.7l-3.5-0.9
		l-1.4,5.8c-0.8-0.2-1.5-0.3-2.2-0.5l0,0l-4.8-1.2l-0.9,3.8c0,0,2.6,0.6,2.5,0.6c1.4,0.4,1.7,1.3,1.6,2l-1.6,6.6
		c0.1,0,0.2,0.1,0.4,0.1c-0.1,0-0.2-0.1-0.4-0.1L46.6,56c-0.2,0.4-0.6,1.1-1.6,0.8c0,0.1-2.6-0.6-2.6-0.6l-1.7,4l4.6,1.1
		c0.9,0.2,1.7,0.4,2.5,0.6l-1.5,5.8l3.5,0.9l1.4-5.8c1,0.3,1.9,0.5,2.8,0.7l-1.4,5.7l3.5,0.9l1.5-5.8c6,1.1,10.5,0.7,12.4-4.7
		c1.5-4.4-0.1-6.9-3.2-8.5C69,50.7,70.8,49.1,71.2,46z M63.2,57.3c-1.1,4.4-8.4,2-10.8,1.4l1.9-7.7C56.7,51.6,64.3,52.7,63.2,57.3z
		 M64.3,46c-1,4-7.1,2-9.1,1.5l1.7-7C58.9,40.9,65.3,41.8,64.3,46z"/>
	<g>
		<path class="st4" d="M103.1,32.3h12.2c4.2,0,7.5,1,10,2.9c2.5,1.9,3.8,4.5,3.8,7.7c0,2.3-0.7,4.3-2,6c-1.3,1.7-3,2.8-5,3.2
			c2.2,0.4,4.1,1.4,5.7,3c1.6,1.7,2.4,3.9,2.4,6.8c0,3.2-1.1,5.8-3.2,7.8c-2.1,2-5.2,3-9.1,3h-14.8V32.3z M108,36.5v13.8h6.5
			c3.2,0,5.6-0.7,7.2-2c1.6-1.4,2.3-3.1,2.3-5.3c0-1.9-0.7-3.4-2.2-4.7c-1.5-1.2-3.6-1.8-6.5-1.8H108z M108,68.6h9.2
			c2.6,0,4.5-0.6,5.9-1.8c1.4-1.2,2.1-2.9,2.1-5.2c0-2.3-0.8-4.1-2.3-5.3c-1.5-1.3-3.7-1.9-6.6-1.9H108V68.6z"/>
		<path class="st4" d="M137.5,35c-0.6-0.6-0.9-1.3-0.9-2.2c0-0.9,0.3-1.6,0.9-2.2c0.6-0.6,1.3-0.9,2.2-0.9c0.9,0,1.6,0.3,2.2,0.9
			c0.6,0.6,0.9,1.3,0.9,2.2c0,0.9-0.3,1.6-0.9,2.2c-0.6,0.6-1.3,0.9-2.2,0.9C138.8,35.9,138.1,35.6,137.5,35z M137.4,72.8V42.3h4.7
			v30.4H137.4z"/>
		<path class="st4" d="M157.7,46.2V64c0,3.2,1.5,4.9,4.6,4.9c1.6,0,2.9-0.5,4.1-1.4V72c-1.3,0.7-2.8,1.1-4.4,1.1c-6,0-9-3.1-9-9.2
			V46.2h-4.9v-3.8h4.9v-7.6h4.7v7.6h8.4v3.8H157.7z"/>
		<path class="st4" d="M176.4,57.7c0,3.3,1,6,3,8.2c2,2.2,4.7,3.3,8.3,3.3c2.3,0,4.5-0.7,6.5-2v4.5c-1.9,1.2-4.3,1.7-7.1,1.7
			c-4.8,0-8.6-1.5-11.4-4.6s-4.2-6.8-4.2-11.2c0-4.3,1.4-8,4.2-11.2c2.8-3.1,6.7-4.7,11.5-4.7c2.6,0,4.9,0.6,7,1.7V48
			c-1.8-1.2-4-1.9-6.5-1.9c-3.4,0-6.2,1.1-8.3,3.3C177.4,51.7,176.4,54.4,176.4,57.7z"/>
		<path class="st4" d="M213.9,73.3c-4.4,0-7.8-1.5-10.4-4.4c-2.5-2.9-3.8-6.6-3.8-11.1c0-4.5,1.3-8.3,3.9-11.3c2.6-3,6-4.5,10.2-4.5
			c4.6,0,8.1,1.5,10.6,4.4c2.5,3,3.8,6.7,3.8,11.3c0,4.5-1.3,8.3-3.8,11.2C221.9,71.8,218.4,73.3,213.9,73.3z M213.9,46.1
			c-2.9,0-5.1,1.1-6.8,3.4c-1.6,2.2-2.5,5-2.5,8.2c0,3.2,0.8,5.9,2.5,8.1c1.7,2.2,3.9,3.3,6.7,3.3c3,0,5.4-1.1,7-3.3
			c1.6-2.2,2.5-4.9,2.5-8.1c0-3.4-0.8-6.1-2.3-8.3C219.5,47.2,217.1,46.1,213.9,46.1z"/>
		<path class="st4" d="M235.6,35c-0.6-0.6-0.9-1.3-0.9-2.2c0-0.9,0.3-1.6,0.9-2.2c0.6-0.6,1.3-0.9,2.2-0.9c0.9,0,1.6,0.3,2.2,0.9
			c0.6,0.6,0.9,1.3,0.9,2.2c0,0.9-0.3,1.6-0.9,2.2c-0.6,0.6-1.3,0.9-2.2,0.9C236.9,35.9,236.2,35.6,235.6,35z M235.5,72.8V42.3h4.7
			v30.4H235.5z"/>
		<path class="st4" d="M253.9,42.3v5.3c1.8-3.8,5-5.7,9.6-5.7c3,0,5.3,0.9,7.1,2.7c1.8,1.8,2.6,4.2,2.6,7.2v20.9h-4.7V53.1
			c0-2.2-0.6-3.9-1.7-5.1c-1.1-1.2-2.6-1.8-4.5-1.8c-2.3,0-4.3,0.9-5.9,2.6c-1.7,1.8-2.5,4.2-2.5,7.3v16.6h-4.7V42.3H253.9z"/>
	</g>
	<g>
		<path class="st4" d="M34.7,157.2v-3.1l5.6-3.4h2.7v23.5h-2.8v-20.4L34.7,157.2z"/>
		<path class="st4" d="M51,171.8h10.9v2.5H47v-2.4c7.4-5.6,11.2-10.3,11.2-14c0-1.5-0.4-2.6-1.3-3.4c-0.9-0.8-2-1.2-3.5-1.2
			c-1.9,0-3.8,0.7-5.6,2.1v-2.8c1.7-1.3,3.7-2,5.9-2c2.1,0,3.9,0.6,5.3,1.8s2.2,3,2.2,5.2C61.2,161.8,57.8,166.6,51,171.8z"/>
		<path class="st4" d="M63.2,178.7l3.3-8.1h3.8l-4.6,8.1H63.2z"/>
		<path class="st4" d="M72,150.8h15.4v2.5l-9.8,21.1h-3l9.8-21.1H72V150.8z"/>
		<path class="st4" d="M88.4,157.2v-3.1l5.6-3.4h2.7v23.5h-2.8v-20.4L88.4,157.2z"/>
		<path class="st4" d="M112.5,162.5c2.9,0.9,4.4,2.8,4.4,5.7c0,1.9-0.8,3.5-2.3,4.7c-1.5,1.2-3.4,1.7-5.7,1.7c-2.2,0-4-0.6-5.5-1.7
			c-1.5-1.1-2.2-2.6-2.2-4.5c0-1.4,0.4-2.6,1.1-3.6c0.8-1,1.8-1.7,3.1-2.2c-2.6-1-3.9-2.8-3.9-5.4c0-2.1,0.7-3.7,2.2-4.9
			s3.1-1.7,5.1-1.7c2,0,3.8,0.6,5.2,1.7s2.2,2.8,2.2,5c0,1.2-0.3,2.3-1,3.2C114.6,161.3,113.7,162,112.5,162.5z M109,172.1
			c1.6,0,2.8-0.4,3.7-1.2c0.9-0.8,1.3-1.8,1.3-3c0-1.2-0.4-2.1-1.3-2.9c-0.8-0.8-2.1-1.2-3.7-1.2c-1.6,0-2.8,0.5-3.6,1.3
			c-0.8,0.8-1.2,1.9-1.2,3.1c0,1.1,0.4,2,1.3,2.8C106.2,171.7,107.4,172.1,109,172.1z M108.9,153c-1.3,0-2.4,0.4-3.2,1.2
			s-1.2,1.8-1.2,2.9c0,1.4,0.4,2.4,1.3,3.1c0.9,0.7,1.9,1,3.3,1c1.3,0,2.3-0.4,3.1-1.1c0.8-0.7,1.2-1.8,1.2-3.1
			c0-1.2-0.4-2.1-1.2-2.9C111.5,153.4,110.4,153,108.9,153z"/>
	</g>
	<g>
		<path class="st4" d="M168.4,173.9v-2.8c1.2,0.6,2.6,0.8,4,0.8c4.3,0,6.8-2.7,7.4-8.2c-1.2,1.4-3,2.1-5.3,2.1c-1.9,0-3.6-0.7-5-2.1
			c-1.4-1.4-2.1-3.3-2.1-5.6c0-2.2,0.7-4.1,2-5.5s3.1-2.2,5.4-2.2c2.6,0,4.6,1,6,3s2,4.5,2,7.5c0,4.3-0.9,7.6-2.6,10.1
			c-1.7,2.4-4.3,3.7-7.7,3.7C171.1,174.6,169.7,174.4,168.4,173.9z M179.9,161.1v-0.2c0-2.3-0.4-4.1-1.2-5.6
			c-0.8-1.5-2.1-2.2-3.9-2.2c-1.4,0-2.5,0.5-3.3,1.4c-0.8,0.9-1.2,2.2-1.2,3.7c0,1.7,0.4,2.9,1.3,3.8c0.9,0.9,2,1.3,3.5,1.3
			C177.1,163.4,178.7,162.6,179.9,161.1z"/>
		<path class="st4" d="M200.2,150.6v2.8c-1-0.5-2.1-0.7-3.3-0.7c-2.3,0-4.1,0.8-5.4,2.5c-1.3,1.7-2.2,3.8-2.5,6.4
			c1.6-1.7,3.5-2.5,5.9-2.5c2.2,0,3.9,0.7,5.1,2.1c1.2,1.4,1.9,3.2,1.9,5.4c0,2.4-0.7,4.3-2,5.8c-1.4,1.5-3.1,2.2-5.4,2.2
			c-2.7,0-4.8-1-6.2-3.1c-1.4-2-2.2-4.7-2.2-8c0-3.9,1-7.2,2.9-9.7c1.9-2.6,4.6-3.9,7.9-3.9C198,150.1,199.1,150.3,200.2,150.6z
			 M194.5,172.1c1.4,0,2.5-0.5,3.3-1.5c0.8-1,1.2-2.3,1.2-4c0-1.5-0.4-2.7-1.2-3.6c-0.8-0.9-1.9-1.3-3.1-1.3c-2.2,0-4,0.9-5.6,2.6
			c0.1,2.5,0.6,4.5,1.6,5.8C191.6,171.4,192.9,172.1,194.5,172.1z"/>
		<path class="st4" d="M203.8,157.2v-3.1l5.6-3.4h2.7v23.5h-2.8v-20.4L203.8,157.2z"/>
		<path class="st4" d="M214.5,178.7l3.3-8.1h3.8l-4.6,8.1H214.5z"/>
		<path class="st4" d="M224.5,162.5c0-3.7,0.8-6.6,2.3-8.8c1.5-2.1,3.5-3.2,5.9-3.2c2.5,0,4.6,1.1,6.1,3.2c1.5,2.1,2.3,5.1,2.3,8.8
			c0,3.7-0.7,6.6-2.2,8.8c-1.4,2.2-3.5,3.3-6.2,3.3c-2.5,0-4.5-1.1-5.9-3.3C225.2,169.1,224.5,166.1,224.5,162.5z M228.9,155.6
			c-1,1.6-1.5,3.9-1.5,6.9s0.5,5.3,1.5,6.9c1,1.7,2.3,2.5,3.7,2.5c1.7,0,3-0.8,3.9-2.4c1-1.6,1.5-4,1.5-7c0-3-0.5-5.3-1.5-6.9
			c-1-1.6-2.3-2.4-3.9-2.4C231.2,153.2,230,154,228.9,155.6z"/>
		<path class="st4" d="M244.6,154.6v-2.8c1.4-0.9,3-1.3,4.8-1.3c2.3,0,4.1,0.6,5.4,1.8c1.3,1.2,1.9,2.7,1.9,4.4c0,1.3-0.3,2.4-1,3.4
			c-0.6,1-1.6,1.8-2.8,2.3c1.4,0.3,2.5,0.9,3.3,1.9c0.8,0.9,1.2,2.1,1.2,3.5c0,1.9-0.7,3.5-2,4.8c-1.3,1.3-3.2,1.9-5.7,1.9
			c-2.3,0-4.2-0.4-5.9-1.2v-2.8c1.8,0.9,3.7,1.4,5.8,1.4c1.5,0,2.7-0.4,3.6-1.2s1.3-1.8,1.3-3.1c0-1.3-0.5-2.3-1.4-2.9
			c-0.9-0.7-2.3-1-4.1-1h-1.5v-2.5h1.5c1.3,0,2.5-0.4,3.4-1.1c0.9-0.8,1.4-1.8,1.4-3c0-1.3-0.4-2.2-1.2-2.9c-0.8-0.6-1.9-1-3.3-1
			C247.7,153.1,246.1,153.6,244.6,154.6z"/>
		<path class="st4" d="M275.3,150.6v2.8c-1-0.5-2.1-0.7-3.3-0.7c-2.3,0-4.1,0.8-5.4,2.5c-1.3,1.7-2.2,3.8-2.5,6.4
			c1.6-1.7,3.5-2.5,5.9-2.5c2.2,0,3.9,0.7,5.1,2.1c1.2,1.4,1.9,3.2,1.9,5.4c0,2.4-0.7,4.3-2,5.8c-1.4,1.5-3.2,2.2-5.4,2.2
			c-2.7,0-4.8-1-6.2-3.1s-2.2-4.7-2.2-8c0-3.9,1-7.2,2.9-9.7c1.9-2.6,4.6-3.9,7.9-3.9C273,150.1,274.1,150.3,275.3,150.6z
			 M269.5,172.1c1.4,0,2.5-0.5,3.3-1.5c0.8-1,1.2-2.3,1.2-4c0-1.5-0.4-2.7-1.2-3.6c-0.8-0.9-1.9-1.3-3.2-1.3c-2.2,0-4,0.9-5.6,2.6
			c0.1,2.5,0.6,4.5,1.6,5.8C266.6,171.4,267.9,172.1,269.5,172.1z"/>
	</g>
</g>
</svg>
