<?xml version="1.0" encoding="utf-8"?>
<!-- Generator: Adobe Illustrator 22.0.1, SVG Export Plug-In . SVG Version: 6.00 Build 0)  -->
<svg version="1.1" xmlns="http://www.w3.org/2000/svg" xmlns:xlink="http://www.w3.org/1999/xlink" x="0px" y="0px"
	 viewBox="0 0 500 200" style="enable-background:new 0 0 500 200;" xml:space="preserve">
<style type="text/css">
	.st0{fill:#F1385B;}
	.st1{fill:none;stroke:#CCCCCC;stroke-width:0.75;stroke-miterlimit:10;}
	.st2{fill:#FFFFFF;}
	.st3{fill:none;stroke:#FFFFFF;stroke-width:2;stroke-miterlimit:10;}
	.st4{fill:#DEE4EA;}
</style>
<g id="Layer_2">
	<path class="st0" d="M308,200H12c-6.6,0-12-5.4-12-12V12C0,5.4,5.4,0,12,0h296c6.6,0,12,5.4,12,12v176C320,194.6,314.6,200,308,200
		z"/>
</g>
<g id="Layer_1">
	<line class="st1" x1="0" y1="100" x2="320" y2="100"/>
	<g>
		<path class="st2" d="M122.3,38.8h-13.4v10.6h11.8v4.1h-11.8V67H104V34.6h18.3V38.8z"/>
		<path class="st2" d="M142.6,42.7h4.7V67h-4.7v-4.2c-1.3,3-3.8,4.5-7.6,4.5c-2.4,0-4.3-0.7-5.7-2.1c-1.4-1.4-2.1-3.4-2.1-5.9V42.7
			h4.8v15.5c0,1.7,0.4,2.9,1.2,3.8c0.8,0.9,1.9,1.3,3.4,1.3c1.8,0,3.3-0.6,4.4-1.9c1.1-1.3,1.7-3.1,1.7-5.4V42.7z"/>
		<path class="st2" d="M158.7,42.7v4.2c1.4-3,4-4.5,7.6-4.5c2.4,0,4.3,0.7,5.7,2.2c1.4,1.5,2.1,3.5,2.1,6V67h-4.7V51.6
			c0-1.7-0.4-3-1.3-3.9c-0.8-0.9-2-1.3-3.4-1.3c-1.7,0-3.1,0.6-4.3,1.9c-1.2,1.3-1.8,3.1-1.8,5.4V67H154V42.7H158.7z"/>
		<path class="st2" d="M198.9,38.8h-13.4v10.6h11.8v4.1h-11.8V67h-4.9V34.6h18.3V38.8z"/>
		<path class="st2" d="M204.7,48.5v-4.6c1.9-1.1,4.4-1.6,7.5-1.6c6.4,0,9.6,3.1,9.6,9.3V67h-4.7v-2.9c-1.2,2-3.4,3.1-6.6,3.1
			c-2.3,0-4.2-0.7-5.5-2c-1.4-1.3-2.1-3-2.1-5.1c0-2.3,0.9-4.2,2.6-5.4c1.8-1.3,4.2-1.9,7.4-1.9h4v-1.4c0-1.7-0.4-2.9-1.2-3.8
			c-0.8-0.8-2.1-1.3-4-1.3C209.2,46.3,206.8,47,204.7,48.5z M216.9,56.2h-3.6c-1.8,0-3.1,0.4-4.1,1.1c-0.9,0.7-1.4,1.6-1.4,2.7
			c0,1.1,0.4,2,1.1,2.6c0.7,0.6,1.7,1,3.1,1c1.5,0,2.7-0.4,3.6-1.3c0.9-0.8,1.3-2,1.3-3.3V56.2z"/>
		<path class="st2" d="M228.5,37.3c-0.6-0.6-0.8-1.3-0.8-2.1c0-0.8,0.3-1.5,0.8-2.1c0.6-0.6,1.3-0.9,2.1-0.9c0.8,0,1.5,0.3,2.1,0.9
			c0.6,0.6,0.9,1.3,0.9,2.1c0,0.8-0.3,1.5-0.9,2.1c-0.6,0.6-1.3,0.9-2.1,0.9C229.8,38.2,229.1,37.9,228.5,37.3z M228.3,67V42.7h4.8
			V67H228.3z"/>
		<path class="st2" d="M244.5,42.7v4.3c1.2-3,3.3-4.5,6.4-4.5c0.4,0,0.9,0,1.5,0.1v4.6c-0.7-0.3-1.4-0.4-2.3-0.4c-1.6,0-3,0.7-4,2.2
			c-1.1,1.4-1.6,3.2-1.6,5.1v13h-4.7V42.7H244.5z"/>
	</g>
	<path class="st3" d="M87,57.7C82.8,74.9,65.4,85.3,48.3,81C31.1,76.8,20.7,59.4,25,42.3C29.2,25.1,46.6,14.7,63.7,19
		C80.9,23.2,91.3,40.6,87,57.7z"/>
	<g>
		<path class="st4" d="M17.1,114.2h4.8c1.9,0,3.5,0.5,4.6,1.5c1.1,1,1.7,2.3,1.7,3.9s-0.6,2.9-1.7,3.9S23.9,125,22,125h-2.4v6h-2.6
			V114.2z M19.6,122.9h2.5c1.1,0,1.9-0.4,2.5-1c0.6-0.6,0.9-1.4,0.9-2.3c0-1-0.3-1.8-1-2.4c-0.6-0.6-1.5-0.9-2.7-1h-2.3V122.9z"/>
		<path class="st4" d="M33.2,118.3v2.2c0.6-1.6,1.7-2.3,3.3-2.3c0.2,0,0.5,0,0.8,0.1v2.4c-0.4-0.1-0.7-0.2-1.2-0.2
			c-0.9,0-1.6,0.4-2.1,1.1s-0.8,1.6-0.8,2.7v6.8h-2.4v-12.7H33.2z"/>
		<path class="st4" d="M39.4,115.5c-0.3-0.3-0.4-0.7-0.4-1.1s0.1-0.8,0.4-1.1c0.3-0.3,0.7-0.4,1.1-0.4s0.8,0.1,1.1,0.4
			c0.3,0.3,0.5,0.7,0.5,1.1c0,0.4-0.1,0.8-0.5,1.1c-0.3,0.3-0.7,0.4-1.1,0.4S39.7,115.8,39.4,115.5z M39.3,131v-12.7h2.5V131H39.3z"
			/>
		<path class="st4" d="M47.1,124.7c0,1.3,0.4,2.3,1.2,3.2s1.8,1.2,3.1,1.2c1,0,1.9-0.3,2.8-0.8v2.2c-0.8,0.5-1.9,0.8-3.1,0.8
			c-2,0-3.6-0.6-4.8-1.9s-1.8-2.8-1.8-4.7c0-1.8,0.6-3.4,1.8-4.7c1.2-1.3,2.8-1.9,4.8-1.9c1.1,0,2.1,0.2,3,0.7v2.3
			c-0.8-0.5-1.7-0.8-2.8-0.8c-1.3,0-2.4,0.4-3.2,1.3C47.5,122.4,47.1,123.4,47.1,124.7z"/>
		<path class="st4" d="M66.5,128.1v2.2c-0.9,0.5-2.2,0.8-3.7,0.8c-2,0-3.5-0.6-4.7-1.8c-1.2-1.2-1.8-2.7-1.8-4.6
			c0-2,0.5-3.6,1.6-4.8c1.1-1.2,2.4-1.7,4.1-1.7c1.6,0,2.9,0.5,3.8,1.5c1,1,1.4,2.5,1.4,4.4c0,0.5-0.1,1.1-0.1,1.6h-8.3
			c0.2,1.1,0.6,1.9,1.4,2.5s1.7,0.9,2.9,0.9C64.5,129.1,65.6,128.8,66.5,128.1z M65,123.8v-0.5c0-1-0.3-1.7-0.8-2.3
			c-0.5-0.6-1.2-0.8-2.1-0.8c-0.8,0-1.5,0.3-2.1,0.9s-1,1.5-1.1,2.6H65z"/>
		<path class="st4" d="M82.9,135.9h-2.7c-2.7-3.4-4.1-7.2-4.1-11.4c0-4.2,1.3-7.9,3.9-11.1h2.7c-1.3,1.7-2.3,3.5-2.9,5.4
			c-0.7,2-1,3.9-1,5.8c0,1.9,0.4,3.8,1.1,5.8C80.6,132.4,81.6,134.2,82.9,135.9z"/>
		<path class="st4" d="M94.5,124.6v-10.4h2.6v10.4c0,2.2-0.6,3.8-1.7,5c-1.1,1.1-2.7,1.7-4.7,1.7c-2,0-3.5-0.6-4.6-1.7
			c-1.1-1.1-1.7-2.7-1.7-4.8v-10.6h2.6v10.6c0,1.4,0.3,2.5,1,3.1c0.7,0.7,1.6,1,2.7,1C93.3,128.8,94.5,127.4,94.5,124.6z"/>
		<path class="st4" d="M109.8,114.8v2.5c-1.1-0.7-2.4-1-3.8-1c-0.9,0-1.6,0.2-2.2,0.6s-0.8,0.9-0.8,1.6c0,0.7,0.3,1.2,0.8,1.6
			c0.5,0.4,1.3,0.8,2.4,1.3c0.7,0.3,1.2,0.6,1.6,0.8c0.4,0.2,0.8,0.5,1.4,0.9c0.5,0.4,0.9,0.9,1.1,1.4c0.2,0.5,0.4,1.2,0.4,1.9
			c0,1.5-0.5,2.6-1.6,3.5c-1.1,0.8-2.4,1.3-4.1,1.3c-1.9,0-3.4-0.4-4.6-1.1v-2.7c1.3,1,2.8,1.5,4.6,1.5c0.9,0,1.6-0.2,2.2-0.6
			s0.8-1,0.8-1.8c0-0.5-0.2-0.9-0.5-1.2c-0.3-0.4-0.7-0.7-1-0.9c-0.4-0.2-0.9-0.5-1.6-0.8c-0.4-0.2-0.7-0.3-0.9-0.4
			c-0.2-0.1-0.5-0.2-0.9-0.5c-0.4-0.2-0.7-0.4-0.9-0.5c-0.2-0.2-0.4-0.4-0.7-0.6c-0.3-0.3-0.5-0.5-0.6-0.8s-0.2-0.6-0.4-0.9
			s-0.2-0.7-0.2-1.2c0-1.4,0.5-2.6,1.6-3.4c1-0.8,2.4-1.3,4-1.3C107.5,114,108.8,114.3,109.8,114.8z"/>
		<path class="st4" d="M113.7,114.2h5.3c2.5,0,4.5,0.8,6.1,2.3c1.6,1.6,2.4,3.5,2.4,5.9c0,2.5-0.8,4.6-2.3,6.2s-3.6,2.4-6.2,2.4
			h-5.3V114.2z M116.4,128.8h2.6c1.9,0,3.4-0.6,4.4-1.8c1-1.2,1.5-2.7,1.5-4.6c0-1.7-0.5-3.2-1.6-4.3c-1.1-1.2-2.5-1.7-4.3-1.7h-2.6
			V128.8z"/>
		<path class="st4" d="M131.1,113.3c2.6,3.3,3.9,7,3.9,11.1c0,4.2-1.3,8-4,11.4h-2.7c1.3-1.7,2.4-3.5,3.1-5.5s1.1-3.9,1.1-5.8
			c0-1.9-0.3-3.9-1-5.8c-0.7-2-1.6-3.8-2.9-5.5H131.1z"/>
	</g>
	<g>
		<path class="st4" d="M180.6,116.2l-5.8,16.8h-3l-5.7-16.8h2.8l2.1,6.7c0.5,1.4,0.9,2.8,1.3,4.1c0.4,1.3,0.6,2.3,0.8,2.8l0.3,0.9
			c0.5-2,1.3-4.6,2.4-7.9l2.2-6.7H180.6z"/>
		<path class="st4" d="M188.3,133.2c-1.9,0-3.3-0.6-4.4-1.8c-1.1-1.2-1.6-2.8-1.6-4.6c0-1.9,0.6-3.5,1.6-4.7
			c1.1-1.3,2.6-1.9,4.4-1.9c1.9,0,3.4,0.6,4.5,1.8c1,1.2,1.6,2.8,1.6,4.7c0,1.9-0.5,3.5-1.6,4.7
			C191.7,132.6,190.2,133.2,188.3,133.2z M188.3,122.2c-1.1,0-1.9,0.4-2.5,1.3s-0.9,1.9-0.9,3.2c0,1.3,0.3,2.3,0.9,3.2
			c0.6,0.9,1.5,1.3,2.5,1.3c1.1,0,2-0.4,2.6-1.3c0.6-0.8,0.9-1.9,0.9-3.2c0-1.3-0.3-2.4-0.9-3.2
			C190.4,122.6,189.5,122.2,188.3,122.2z"/>
		<path class="st4" d="M197.3,133v-17.7h2.5V133H197.3z"/>
		<path class="st4" d="M211.1,120.3h2.4V133h-2.4v-2.2c-0.7,1.5-2,2.3-4,2.3c-1.3,0-2.2-0.4-3-1.1c-0.7-0.7-1.1-1.8-1.1-3.1v-8.6
			h2.5v8c0,0.9,0.2,1.5,0.6,2c0.4,0.5,1,0.7,1.8,0.7c0.9,0,1.7-0.3,2.3-1c0.6-0.7,0.9-1.6,0.9-2.8V120.3z"/>
		<path class="st4" d="M219.5,120.3v2c0.7-1.5,1.9-2.2,3.6-2.2c1.9,0,3.1,0.8,3.6,2.4c0.4-0.8,0.9-1.4,1.5-1.8
			c0.7-0.4,1.4-0.6,2.3-0.6c1.3,0,2.3,0.4,3,1.1c0.7,0.8,1,1.8,1,3.2v8.5H232v-8c0-1.8-0.7-2.7-2.2-2.7c-0.7,0-1.4,0.3-2,1
			c-0.6,0.7-0.9,1.6-0.9,2.9v6.9h-2.4v-8c0-1.8-0.7-2.7-2.2-2.7c-0.7,0-1.4,0.3-2,1s-0.9,1.6-0.9,2.9v6.9H217v-12.7H219.5z"/>
		<path class="st4" d="M247.2,130.1v2.2c-0.9,0.5-2.2,0.8-3.7,0.8c-2,0-3.5-0.6-4.7-1.8c-1.2-1.2-1.8-2.7-1.8-4.6
			c0-2,0.5-3.6,1.6-4.8c1.1-1.2,2.4-1.7,4.1-1.7c1.6,0,2.9,0.5,3.8,1.5c1,1,1.4,2.5,1.4,4.4c0,0.5-0.1,1.1-0.1,1.6h-8.3
			c0.2,1.1,0.6,1.9,1.4,2.5s1.7,0.9,2.9,0.9C245.2,131.1,246.3,130.8,247.2,130.1z M245.7,125.8v-0.5c0-1-0.3-1.7-0.8-2.3
			c-0.5-0.6-1.2-0.8-2.1-0.8c-0.8,0-1.5,0.3-2.1,0.9s-1,1.5-1.1,2.6H245.7z"/>
		<path class="st4" d="M263.6,137.9h-2.7c-2.7-3.4-4.1-7.2-4.1-11.4c0-4.2,1.3-7.9,3.9-11.1h2.7c-1.3,1.7-2.3,3.5-2.9,5.4
			c-0.7,2-1,3.9-1,5.8c0,1.9,0.3,3.8,1.1,5.8C261.3,134.4,262.3,136.2,263.6,137.9z"/>
		<path class="st4" d="M265.1,116.2h5.5c1.8,0,3.2,0.4,4.2,1.2s1.5,1.9,1.5,3.3c0,0.9-0.3,1.8-0.8,2.4c-0.5,0.7-1.2,1.2-2,1.4
			c0.9,0.2,1.7,0.6,2.3,1.3c0.6,0.7,0.9,1.6,0.9,2.8c0,1.3-0.5,2.4-1.4,3.3c-0.9,0.8-2.2,1.3-3.8,1.3h-6.5V116.2z M267.7,118.3v5.2
			h2.3c1.3,0,2.2-0.3,2.8-0.8c0.6-0.5,0.9-1.2,0.9-2c0-0.7-0.3-1.3-0.8-1.8c-0.5-0.5-1.4-0.7-2.5-0.7H267.7z M267.7,130.9h3.3
			c2.1,0,3.2-0.9,3.2-2.6c0-0.8-0.3-1.5-0.9-2c-0.6-0.5-1.4-0.7-2.6-0.7h-3V130.9z"/>
		<path class="st4" d="M289.8,116.2v2.1h-4.4V133h-2.6v-14.7h-4.4v-2.1H289.8z"/>
		<path class="st4" d="M304.3,116.8v2.5c-0.7-0.4-1.4-0.7-2-0.8c-0.6-0.2-1.3-0.2-2.3-0.2c-1.7,0-3.1,0.6-4.2,1.7s-1.7,2.7-1.7,4.5
			c0,1.9,0.6,3.4,1.7,4.6c1.1,1.1,2.6,1.7,4.4,1.7c1.6,0,3-0.4,4.1-1.3v2.6c-1,0.7-2.5,1-4.3,1c-2.5,0-4.6-0.8-6.2-2.4
			c-1.6-1.6-2.4-3.7-2.4-6.3c0-2.5,0.8-4.6,2.4-6.2c1.6-1.6,3.6-2.4,6.1-2.4C301.8,115.9,303.2,116.2,304.3,116.8z"/>
		<path class="st4" d="M308,115.3c2.6,3.3,3.8,7,3.8,11.1c0,4.2-1.3,8-4,11.4h-2.7c1.3-1.7,2.4-3.5,3.1-5.5s1.1-3.9,1.1-5.8
			c0-1.9-0.3-3.9-1-5.8c-0.7-2-1.6-3.8-2.9-5.5H308z"/>
	</g>
	<g>
		<path class="st2" d="M29.4,150.7v3.7c-1.6-1-3.4-1.5-5.5-1.5c-1.3,0-2.4,0.3-3.1,0.9c-0.7,0.6-1.1,1.4-1.1,2.3
			c0,0.5,0.1,1,0.3,1.4c0.2,0.4,0.6,0.8,1.2,1.2c0.6,0.4,1,0.7,1.4,0.8s1,0.5,1.9,0.9c0.9,0.4,1.7,0.8,2.2,1.1
			c0.6,0.3,1.2,0.8,1.9,1.3c0.7,0.6,1.2,1.2,1.5,2c0.3,0.8,0.5,1.6,0.5,2.6c0,1.9-0.6,3.5-1.8,4.7c-1.2,1.2-2.9,1.9-4.9,2.1v3.9h-3
			v-3.9c-2-0.2-3.6-0.7-5-1.5v-3.9c1.9,1.4,4.1,2.1,6.6,2.1c1.3,0,2.4-0.3,3.2-0.9c0.8-0.6,1.2-1.5,1.2-2.5c0-0.3,0-0.5-0.1-0.7
			c0-0.2-0.1-0.5-0.3-0.7c-0.1-0.2-0.3-0.4-0.4-0.6c-0.1-0.2-0.3-0.3-0.6-0.5c-0.3-0.2-0.5-0.3-0.6-0.4c-0.2-0.1-0.4-0.3-0.8-0.4
			c-0.4-0.2-0.6-0.3-0.8-0.4c-0.2-0.1-0.5-0.2-0.9-0.4c-0.5-0.2-0.8-0.3-0.9-0.4c-1.8-0.8-3.1-1.7-4.1-2.7c-1-1-1.5-2.3-1.5-4.1
			c0-1.9,0.6-3.4,1.9-4.6c1.3-1.2,3-1.9,5-2.1v-3.9h3.1v3.9C27.2,149.9,28.4,150.2,29.4,150.7z"/>
		<path class="st2" d="M33.8,162.2c0-3.7,0.7-6.6,2.2-8.8c1.5-2.2,3.5-3.3,6.1-3.3c2.6,0,4.7,1.1,6.2,3.2c1.5,2.2,2.2,5.1,2.2,8.8
			c0,3.7-0.7,6.6-2.2,8.8c-1.5,2.2-3.5,3.3-6.2,3.3c-2.6,0-4.6-1.1-6.1-3.3C34.5,168.8,33.8,165.8,33.8,162.2z M38.7,155.7
			c-0.9,1.5-1.3,3.7-1.3,6.5c0,2.8,0.4,5,1.3,6.5c0.9,1.5,2,2.3,3.4,2.3c1.5,0,2.7-0.8,3.5-2.3c0.8-1.5,1.3-3.7,1.3-6.6
			c0-2.9-0.4-5-1.3-6.5c-0.9-1.5-2-2.3-3.4-2.3C40.7,153.4,39.6,154.1,38.7,155.7z"/>
		<path class="st2" d="M53.7,173.6c-0.5-0.5-0.7-1.1-0.7-1.7s0.2-1.2,0.7-1.7c0.5-0.5,1-0.7,1.7-0.7c0.7,0,1.2,0.2,1.7,0.7
			c0.5,0.5,0.7,1,0.7,1.7s-0.2,1.2-0.7,1.7c-0.5,0.5-1,0.7-1.7,0.7C54.8,174.3,54.2,174,53.7,173.6z"/>
		<path class="st2" d="M59.5,157.7v-3.8l5.9-3.5h3.2V174h-3.5v-19.7L59.5,157.7z"/>
		<path class="st2" d="M77.3,170.9h10.2v3.1H72.4v-2.9c3-2.2,5.6-4.5,7.6-6.9c2.1-2.4,3.1-4.5,3.1-6.5c0-1.4-0.4-2.4-1.2-3.1
			s-1.9-1.1-3.3-1.1c-1.9,0-3.8,0.7-5.7,2.2v-3.5c1.7-1.3,3.8-2,6.2-2c2.2,0,4,0.6,5.5,1.9c1.4,1.2,2.2,3,2.2,5.3
			C86.9,161.6,83.7,166.1,77.3,170.9z"/>
		<path class="st2" d="M95.5,153.5v6.2c0.9-0.2,1.7-0.3,2.4-0.3c2.4,0,4.4,0.6,5.8,1.9c1.4,1.3,2.1,3,2.1,5.2c0,2.4-0.8,4.2-2.3,5.6
			c-1.5,1.4-3.7,2.1-6.5,2.1c-2.5,0-4.5-0.4-6.1-1.2v-3.4c1.5,0.9,3.4,1.4,5.5,1.4c3.8,0,5.7-1.5,5.7-4.6c0-1.2-0.4-2.2-1.3-2.9
			c-0.9-0.7-2-1-3.4-1c-1.8,0-3.6,0.4-5.4,1.3v-13.4h12.2v3.1H95.5z"/>
	</g>
	<g>
		<path class="st2" d="M171.8,170.6H182v3.1H167v-2.9c3-2.2,5.6-4.5,7.6-6.9c2.1-2.4,3.1-4.5,3.1-6.5c0-1.4-0.4-2.4-1.2-3.1
			s-1.9-1.1-3.3-1.1c-1.9,0-3.8,0.7-5.7,2.2v-3.5c1.7-1.3,3.8-2,6.2-2c2.2,0,4,0.6,5.5,1.9c1.4,1.2,2.2,3,2.2,5.3
			C181.4,161.2,178.2,165.8,171.8,170.6z"/>
		<path class="st2" d="M183.2,178.1l3.5-8.4h4.4l-4.7,8.4H183.2z"/>
		<path class="st2" d="M198.8,153.1v6.2c0.9-0.2,1.7-0.3,2.4-0.3c2.4,0,4.4,0.6,5.8,1.9c1.4,1.3,2.1,3,2.1,5.2
			c0,2.4-0.8,4.2-2.3,5.6c-1.5,1.4-3.7,2.1-6.5,2.1c-2.5,0-4.5-0.4-6.1-1.2v-3.4c1.5,0.9,3.4,1.4,5.5,1.4c3.8,0,5.7-1.5,5.7-4.6
			c0-1.2-0.4-2.2-1.3-2.9c-0.9-0.7-2-1-3.4-1c-1.8,0-3.6,0.4-5.4,1.3v-13.4h12.2v3.1H198.8z"/>
		<path class="st2" d="M224.3,161.8c2.7,0.9,4,2.8,4,5.6c0,2-0.8,3.6-2.3,4.8c-1.5,1.2-3.5,1.8-5.8,1.8c-2.3,0-4.2-0.6-5.7-1.7
			c-1.5-1.2-2.2-2.7-2.2-4.7c0-2.8,1.3-4.7,4-5.7c-1.1-0.5-2-1.2-2.6-2.1c-0.6-0.9-1-2-1-3.2c0-2.1,0.7-3.8,2.2-5
			c1.5-1.2,3.2-1.8,5.3-1.8c2.2,0,4,0.6,5.4,1.7c1.5,1.2,2.2,2.9,2.2,5.1C227.8,159,226.6,160.7,224.3,161.8z M220.2,171
			c1.5,0,2.6-0.4,3.4-1.1c0.8-0.7,1.2-1.6,1.2-2.7c0-1.1-0.4-1.9-1.2-2.7c-0.8-0.7-1.9-1.1-3.4-1.1c-1.4,0-2.5,0.4-3.3,1.2
			c-0.7,0.8-1.1,1.7-1.1,2.8c0,1,0.4,1.8,1.1,2.5C217.7,170.6,218.8,171,220.2,171z M220.2,152.8c-1.2,0-2.2,0.4-2.9,1.1
			c-0.7,0.7-1,1.6-1,2.6c0,1.2,0.4,2.2,1.1,2.8c0.8,0.6,1.7,1,2.9,1c1.1,0,2.1-0.3,2.8-1s1.1-1.6,1.1-2.8c0-1.1-0.3-1.9-1-2.6
			C222.6,153.2,221.5,152.8,220.2,152.8z"/>
		<path class="st2" d="M230.5,150.1H246v3.1l-9.6,20.5h-3.8l9.6-20.5h-11.8V150.1z"/>
	</g>
	<path class="st2" d="M36.8,50.2c0,1.2,0.1,2.4,0.3,3.6l-2.4,0.5c0.2,1.3,0.6,2.6,1.1,3.9l2.3-0.9c0.4,1.1,1,2.2,1.6,3.2l-2.1,1.3
		c0.7,1.1,1.5,2.2,2.4,3.2l1.8-1.7c0.8,0.9,1.7,1.7,2.7,2.4l-1.5,2c1.1,0.8,2.2,1.5,3.4,2.1l1.1-2.2c1.1,0.5,2.2,1,3.3,1.3l-0.7,2.4
		c1.3,0.4,2.6,0.6,4,0.7l0.2-2.5c0.6,0.1,1.2,0.1,1.8,0.1c0.6,0,1.2,0,1.8-0.1l0.2,2.5c1.3-0.1,2.7-0.4,4-0.7l-0.7-2.4
		c1.2-0.3,2.3-0.8,3.3-1.3l1.1,2.2c1.2-0.6,2.4-1.3,3.4-2.1l-1.5-2c1-0.7,1.8-1.5,2.7-2.4l1.8,1.7c0.9-1,1.7-2.1,2.4-3.2l-2.1-1.3
		c0.6-1,1.2-2.1,1.6-3.2l2.3,0.9c0.5-1.3,0.9-2.6,1.1-3.9l-2.4-0.5c0.2-1.2,0.3-2.4,0.3-3.6v0l2.5,0c0-1.4-0.1-2.7-0.4-4l-2.4,0.5
		c-0.2-1.2-0.6-2.3-1-3.5l2.3-0.9c-0.5-1.3-1.1-2.5-1.8-3.6l-2.1,1.3c-0.6-1-1.4-2-2.2-2.9l1.8-1.7c-0.9-1-1.9-1.9-3-2.7l-1.5,2
		c-1-0.7-2-1.4-3.1-1.9l1.1-2.2c-1.2-0.6-2.5-1.1-3.8-1.5l-0.7,2.4c-1.2-0.3-2.3-0.5-3.5-0.7l0.2-2.5c-0.7-0.1-1.3-0.1-2-0.1
		c-0.7,0-1.4,0-2.1,0.1l0.2,2.5c-1.2,0.1-2.4,0.3-3.5,0.7L50.2,29c-1.3,0.4-2.6,0.9-3.8,1.5l1.1,2.2c-1.1,0.5-2.1,1.2-3,1.9l-1.5-2
		c-1.1,0.8-2.1,1.7-3,2.7l1.8,1.7c-0.8,0.9-1.5,1.8-2.2,2.9l-2.1-1.3c-0.7,1.2-1.3,2.4-1.8,3.6l2.3,0.9c-0.4,1.1-0.8,2.3-1,3.5
		l-2.4-0.5c-0.2,1.3-0.4,2.7-0.4,4v0L36.8,50.2z M58.5,65.5l-0.1-0.9c1.4-0.2,2.7-0.6,4-1.2l0.4,0.8C61.4,64.9,59.9,65.3,58.5,65.5
		L58.5,65.5z M71.8,50.1c0,1.5-0.2,3-0.6,4.4l-0.9-0.3c0.4-1.3,0.6-2.7,0.6-4.1v0L71.8,50.1L71.8,50.1L71.8,50.1z M69.3,41.7
		c0.8,1.2,1.4,2.6,1.8,4L70.3,46c-0.4-1.3-1-2.6-1.7-3.8L69.3,41.7z M68.6,58l0.8,0.5c-0.8,1.2-1.8,2.4-2.9,3.3l-0.6-0.7
		C66.9,60.3,67.8,59.2,68.6,58L68.6,58z M62.7,36c1.3,0.6,2.6,1.4,3.7,2.4l-0.6,0.7c-1.1-0.9-2.2-1.7-3.5-2.2L62.7,36z M60.3,46.3
		h2.2l2.8,4.2v-4.2h2.2v7.6h-2.2l-2.8-4.1v4.1h-2.2V46.3z M56.3,34.6c0.7,0,1.5,0.1,2.2,0.2l-0.1,0.9c-1.4-0.2-2.8-0.2-4.2,0
		L54,34.8C54.8,34.6,55.5,34.6,56.3,34.6L56.3,34.6z M51.8,46.3h2.3v4.6c0,0.4,0.1,0.7,0.3,1s0.5,0.3,1,0.3c0.4,0,0.7-0.1,0.9-0.3
		c0.2-0.2,0.3-0.6,0.3-1v-4.6H59v4.5c0,0.4-0.1,0.9-0.2,1.3c-0.1,0.4-0.4,0.7-0.7,1c-0.3,0.3-0.6,0.5-0.9,0.6
		c-0.5,0.2-1,0.3-1.6,0.3c-0.4,0-0.8,0-1.2-0.1c-0.4-0.1-0.8-0.2-1.1-0.3c-0.3-0.2-0.6-0.4-0.8-0.7c-0.2-0.3-0.4-0.6-0.5-0.9
		c-0.1-0.5-0.2-0.9-0.2-1.3L51.8,46.3L51.8,46.3z M54.2,64.6l-0.1,0.9c-1.5-0.2-2.9-0.6-4.2-1.2l0.4-0.8
		C51.5,64,52.8,64.4,54.2,64.6z M49.8,36l0.4,0.8c-1.3,0.6-2.4,1.3-3.5,2.3l-0.6-0.7C47.2,37.4,48.4,36.6,49.8,36L49.8,36z M45,46.3
		h5.8v1.6h-3.4v1.3h2.9v1.5h-2.9v3.1H45V46.3z M46.7,61.2l-0.6,0.7c-1.1-1-2.1-2.1-2.9-3.3l0.8-0.5C44.7,59.2,45.6,60.3,46.7,61.2z
		 M43.2,41.7l0.8,0.5c-0.8,1.2-1.3,2.4-1.7,3.8l-0.9-0.3C41.7,44.4,42.4,43,43.2,41.7L43.2,41.7z M41.6,50.2c0,1.4,0.2,2.8,0.6,4.1
		l-0.9,0.3c-0.4-1.4-0.6-2.9-0.6-4.4L41.6,50.2z"/>
	<g>
	</g>
	<g>
	</g>
	<g>
	</g>
	<g>
	</g>
	<g>
	</g>
	<g>
	</g>
	<g>
	</g>
	<g>
	</g>
	<g>
	</g>
	<g>
	</g>
	<g>
	</g>
	<g>
	</g>
	<g>
	</g>
	<g>
	</g>
	<g>
	</g>
</g>
</svg>
