<?xml version="1.0" encoding="utf-8"?>
<!-- Generator: Adobe Illustrator 22.0.1, SVG Export Plug-In . SVG Version: 6.00 Build 0)  -->
<svg version="1.1" xmlns="http://www.w3.org/2000/svg" xmlns:xlink="http://www.w3.org/1999/xlink" x="0px" y="0px"
	 viewBox="0 0 500 200" style="enable-background:new 0 0 500 200;" xml:space="preserve">
<style type="text/css">
	.st0{fill:#52BA00;}
	.st1{fill:none;stroke:#CCCCCC;stroke-width:0.75;stroke-miterlimit:10;}
	.st2{fill:#FFFFFF;}
	.st3{fill:none;stroke:#FFFFFF;stroke-width:2;stroke-miterlimit:10;}
	.st4{fill:#DEE4EA;}
	.st5{fill:none;stroke:#FFFFFF;stroke-width:1.5;stroke-miterlimit:10;}
</style>
<g id="Layer_2">
	<path class="st0" d="M308,200H12c-6.6,0-12-5.4-12-12V12C0,5.4,5.4,0,12,0h296c6.6,0,12,5.4,12,12v176C320,194.6,314.6,200,308,200
		z"/>
</g>
<g id="Layer_1">
	<line class="st1" x1="0" y1="100" x2="320" y2="100"/>
	<g>
		<path class="st2" d="M104,67V34.6h5.9l8,13.5c1.5,2.5,2.8,4.9,4,7c1.2,2.1,2,3.6,2.5,4.5L125,61c-0.2-2.9-0.3-7.2-0.3-12.8V34.6
			h4.9V67h-5.9l-8-13.5c-1.4-2.4-2.8-4.7-4-6.9c-1.2-2.2-2-3.7-2.5-4.7l-0.7-1.4c0.3,3.2,0.4,7.5,0.4,12.9V67H104z"/>
		<path class="st2" d="M141.6,62.9h13.7V67h-18.7V34.6h18.4v4.1h-13.5v10h12v4.1h-12V62.9z"/>
		<path class="st2" d="M160,50.7c0-5,1.3-9.1,4-12.1c2.7-3,6.3-4.6,10.8-4.6c4.6,0,8.2,1.5,10.9,4.5c2.7,3,4,7.1,4,12.1
			s-1.3,9.1-4,12.1c-2.7,3-6.3,4.6-10.8,4.6c-4.5,0-8.1-1.5-10.8-4.6C161.4,59.8,160,55.7,160,50.7z M167.8,41.9
			c-1.7,2.2-2.6,5.1-2.6,8.8c0,3.7,0.9,6.7,2.6,8.8c1.8,2.2,4.1,3.3,7.1,3.3c3,0,5.4-1.1,7.1-3.2c1.7-2.1,2.5-5.1,2.5-8.9
			c0-3.7-0.9-6.7-2.6-8.8c-1.7-2.1-4.1-3.2-7.1-3.2C171.8,38.6,169.5,39.7,167.8,41.9z"/>
	</g>
	<path class="st3" d="M87,57.7C82.8,74.9,65.4,85.3,48.3,81C31.1,76.8,20.7,59.4,25,42.3C29.2,25.1,46.6,14.7,63.7,19
		C80.9,23.2,91.3,40.6,87,57.7z"/>
	<g>
		<path class="st4" d="M17.1,114.2h4.8c1.9,0,3.5,0.5,4.6,1.5c1.1,1,1.7,2.3,1.7,3.9s-0.6,2.9-1.7,3.9S23.9,125,22,125h-2.4v6h-2.6
			V114.2z M19.6,122.9h2.5c1.1,0,1.9-0.4,2.5-1c0.6-0.6,0.9-1.4,0.9-2.3c0-1-0.3-1.8-1-2.4c-0.6-0.6-1.5-0.9-2.7-1h-2.3V122.9z"/>
		<path class="st4" d="M33.2,118.3v2.2c0.6-1.6,1.7-2.3,3.3-2.3c0.2,0,0.5,0,0.8,0.1v2.4c-0.4-0.1-0.7-0.2-1.2-0.2
			c-0.9,0-1.6,0.4-2.1,1.1s-0.8,1.6-0.8,2.7v6.8h-2.4v-12.7H33.2z"/>
		<path class="st4" d="M39.4,115.5c-0.3-0.3-0.4-0.7-0.4-1.1s0.1-0.8,0.4-1.1c0.3-0.3,0.7-0.4,1.1-0.4s0.8,0.1,1.1,0.4
			c0.3,0.3,0.5,0.7,0.5,1.1c0,0.4-0.1,0.8-0.5,1.1c-0.3,0.3-0.7,0.4-1.1,0.4S39.7,115.8,39.4,115.5z M39.3,131v-12.7h2.5V131H39.3z"
			/>
		<path class="st4" d="M47.1,124.7c0,1.3,0.4,2.3,1.2,3.2s1.8,1.2,3.1,1.2c1,0,1.9-0.3,2.8-0.8v2.2c-0.8,0.5-1.9,0.8-3.1,0.8
			c-2,0-3.6-0.6-4.8-1.9s-1.8-2.8-1.8-4.7c0-1.8,0.6-3.4,1.8-4.7c1.2-1.3,2.8-1.9,4.8-1.9c1.1,0,2.1,0.2,3,0.7v2.3
			c-0.8-0.5-1.7-0.8-2.8-0.8c-1.3,0-2.4,0.4-3.2,1.3C47.5,122.4,47.1,123.4,47.1,124.7z"/>
		<path class="st4" d="M66.5,128.1v2.2c-0.9,0.5-2.2,0.8-3.7,0.8c-2,0-3.5-0.6-4.7-1.8c-1.2-1.2-1.8-2.7-1.8-4.6
			c0-2,0.5-3.6,1.6-4.8c1.1-1.2,2.4-1.7,4.1-1.7c1.6,0,2.9,0.5,3.8,1.5c1,1,1.4,2.5,1.4,4.4c0,0.5-0.1,1.1-0.1,1.6h-8.3
			c0.2,1.1,0.6,1.9,1.4,2.5s1.7,0.9,2.9,0.9C64.5,129.1,65.6,128.8,66.5,128.1z M65,123.8v-0.5c0-1-0.3-1.7-0.8-2.3
			c-0.5-0.6-1.2-0.8-2.1-0.8c-0.8,0-1.5,0.3-2.1,0.9s-1,1.5-1.1,2.6H65z"/>
		<path class="st4" d="M82.9,135.9h-2.7c-2.7-3.4-4.1-7.2-4.1-11.4c0-4.2,1.3-7.9,3.9-11.1h2.7c-1.3,1.7-2.3,3.5-2.9,5.4
			c-0.7,2-1,3.9-1,5.8c0,1.9,0.4,3.8,1.1,5.8C80.6,132.4,81.6,134.2,82.9,135.9z"/>
		<path class="st4" d="M94.5,124.6v-10.4h2.6v10.4c0,2.2-0.6,3.8-1.7,5c-1.1,1.1-2.7,1.7-4.7,1.7c-2,0-3.5-0.6-4.6-1.7
			c-1.1-1.1-1.7-2.7-1.7-4.8v-10.6h2.6v10.6c0,1.4,0.3,2.5,1,3.1c0.7,0.7,1.6,1,2.7,1C93.3,128.8,94.5,127.4,94.5,124.6z"/>
		<path class="st4" d="M109.8,114.8v2.5c-1.1-0.7-2.4-1-3.8-1c-0.9,0-1.6,0.2-2.2,0.6s-0.8,0.9-0.8,1.6c0,0.7,0.3,1.2,0.8,1.6
			c0.5,0.4,1.3,0.8,2.4,1.3c0.7,0.3,1.2,0.6,1.6,0.8c0.4,0.2,0.8,0.5,1.4,0.9c0.5,0.4,0.9,0.9,1.1,1.4c0.2,0.5,0.4,1.2,0.4,1.9
			c0,1.5-0.5,2.6-1.6,3.5c-1.1,0.8-2.4,1.3-4.1,1.3c-1.9,0-3.4-0.4-4.6-1.1v-2.7c1.3,1,2.8,1.5,4.6,1.5c0.9,0,1.6-0.2,2.2-0.6
			s0.8-1,0.8-1.8c0-0.5-0.2-0.9-0.5-1.2c-0.3-0.4-0.7-0.7-1-0.9c-0.4-0.2-0.9-0.5-1.6-0.8c-0.4-0.2-0.7-0.3-0.9-0.4
			c-0.2-0.1-0.5-0.2-0.9-0.5c-0.4-0.2-0.7-0.4-0.9-0.5c-0.2-0.2-0.4-0.4-0.7-0.6c-0.3-0.3-0.5-0.5-0.6-0.8s-0.2-0.6-0.4-0.9
			s-0.2-0.7-0.2-1.2c0-1.4,0.5-2.6,1.6-3.4c1-0.8,2.4-1.3,4-1.3C107.5,114,108.8,114.3,109.8,114.8z"/>
		<path class="st4" d="M113.7,114.2h5.3c2.5,0,4.5,0.8,6.1,2.3c1.6,1.6,2.4,3.5,2.4,5.9c0,2.5-0.8,4.6-2.3,6.2s-3.6,2.4-6.2,2.4
			h-5.3V114.2z M116.4,128.8h2.6c1.9,0,3.4-0.6,4.4-1.8c1-1.2,1.5-2.7,1.5-4.6c0-1.7-0.5-3.2-1.6-4.3c-1.1-1.2-2.5-1.7-4.3-1.7h-2.6
			V128.8z"/>
		<path class="st4" d="M131.1,113.3c2.6,3.3,3.9,7,3.9,11.1c0,4.2-1.3,8-4,11.4h-2.7c1.3-1.7,2.4-3.5,3.1-5.5s1.1-3.9,1.1-5.8
			c0-1.9-0.3-3.9-1-5.8c-0.7-2-1.6-3.8-2.9-5.5H131.1z"/>
	</g>
	<g>
		<path class="st4" d="M180.6,116.2l-5.8,16.8h-3l-5.7-16.8h2.8l2.1,6.7c0.5,1.4,0.9,2.8,1.3,4.1c0.4,1.3,0.6,2.3,0.8,2.8l0.3,0.9
			c0.5-2,1.3-4.6,2.4-7.9l2.2-6.7H180.6z"/>
		<path class="st4" d="M188.3,133.2c-1.9,0-3.3-0.6-4.4-1.8c-1.1-1.2-1.6-2.8-1.6-4.6c0-1.9,0.6-3.5,1.6-4.7
			c1.1-1.3,2.6-1.9,4.4-1.9c1.9,0,3.4,0.6,4.5,1.8c1,1.2,1.6,2.8,1.6,4.7c0,1.9-0.5,3.5-1.6,4.7
			C191.7,132.6,190.2,133.2,188.3,133.2z M188.3,122.2c-1.1,0-1.9,0.4-2.5,1.3s-0.9,1.9-0.9,3.2c0,1.3,0.3,2.3,0.9,3.2
			c0.6,0.9,1.5,1.3,2.5,1.3c1.1,0,2-0.4,2.6-1.3c0.6-0.8,0.9-1.9,0.9-3.2c0-1.3-0.3-2.4-0.9-3.2
			C190.4,122.6,189.5,122.2,188.3,122.2z"/>
		<path class="st4" d="M197.3,133v-17.7h2.5V133H197.3z"/>
		<path class="st4" d="M211.1,120.3h2.4V133h-2.4v-2.2c-0.7,1.5-2,2.3-4,2.3c-1.3,0-2.2-0.4-3-1.1c-0.7-0.7-1.1-1.8-1.1-3.1v-8.6
			h2.5v8c0,0.9,0.2,1.5,0.6,2c0.4,0.5,1,0.7,1.8,0.7c0.9,0,1.7-0.3,2.3-1c0.6-0.7,0.9-1.6,0.9-2.8V120.3z"/>
		<path class="st4" d="M219.5,120.3v2c0.7-1.5,1.9-2.2,3.6-2.2c1.9,0,3.1,0.8,3.6,2.4c0.4-0.8,0.9-1.4,1.5-1.8
			c0.7-0.4,1.4-0.6,2.3-0.6c1.3,0,2.3,0.4,3,1.1c0.7,0.8,1,1.8,1,3.2v8.5H232v-8c0-1.8-0.7-2.7-2.2-2.7c-0.7,0-1.4,0.3-2,1
			c-0.6,0.7-0.9,1.6-0.9,2.9v6.9h-2.4v-8c0-1.8-0.7-2.7-2.2-2.7c-0.7,0-1.4,0.3-2,1s-0.9,1.6-0.9,2.9v6.9H217v-12.7H219.5z"/>
		<path class="st4" d="M247.2,130.1v2.2c-0.9,0.5-2.2,0.8-3.7,0.8c-2,0-3.5-0.6-4.7-1.8c-1.2-1.2-1.8-2.7-1.8-4.6
			c0-2,0.5-3.6,1.6-4.8c1.1-1.2,2.4-1.7,4.1-1.7c1.6,0,2.9,0.5,3.8,1.5c1,1,1.4,2.5,1.4,4.4c0,0.5-0.1,1.1-0.1,1.6h-8.3
			c0.2,1.1,0.6,1.9,1.4,2.5s1.7,0.9,2.9,0.9C245.2,131.1,246.3,130.8,247.2,130.1z M245.7,125.8v-0.5c0-1-0.3-1.7-0.8-2.3
			c-0.5-0.6-1.2-0.8-2.1-0.8c-0.8,0-1.5,0.3-2.1,0.9s-1,1.5-1.1,2.6H245.7z"/>
		<path class="st4" d="M263.6,137.9h-2.7c-2.7-3.4-4.1-7.2-4.1-11.4c0-4.2,1.3-7.9,3.9-11.1h2.7c-1.3,1.7-2.3,3.5-2.9,5.4
			c-0.7,2-1,3.9-1,5.8c0,1.9,0.3,3.8,1.1,5.8C261.3,134.4,262.3,136.2,263.6,137.9z"/>
		<path class="st4" d="M265.1,116.2h5.5c1.8,0,3.2,0.4,4.2,1.2s1.5,1.9,1.5,3.3c0,0.9-0.3,1.8-0.8,2.4c-0.5,0.7-1.2,1.2-2,1.4
			c0.9,0.2,1.7,0.6,2.3,1.3c0.6,0.7,0.9,1.6,0.9,2.8c0,1.3-0.5,2.4-1.4,3.3c-0.9,0.8-2.2,1.3-3.8,1.3h-6.5V116.2z M267.7,118.3v5.2
			h2.3c1.3,0,2.2-0.3,2.8-0.8c0.6-0.5,0.9-1.2,0.9-2c0-0.7-0.3-1.3-0.8-1.8c-0.5-0.5-1.4-0.7-2.5-0.7H267.7z M267.7,130.9h3.3
			c2.1,0,3.2-0.9,3.2-2.6c0-0.8-0.3-1.5-0.9-2c-0.6-0.5-1.4-0.7-2.6-0.7h-3V130.9z"/>
		<path class="st4" d="M289.8,116.2v2.1h-4.4V133h-2.6v-14.7h-4.4v-2.1H289.8z"/>
		<path class="st4" d="M304.3,116.8v2.5c-0.7-0.4-1.4-0.7-2-0.8c-0.6-0.2-1.3-0.2-2.3-0.2c-1.7,0-3.1,0.6-4.2,1.7s-1.7,2.7-1.7,4.5
			c0,1.9,0.6,3.4,1.7,4.6c1.1,1.1,2.6,1.7,4.4,1.7c1.6,0,3-0.4,4.1-1.3v2.6c-1,0.7-2.5,1-4.3,1c-2.5,0-4.6-0.8-6.2-2.4
			c-1.6-1.6-2.4-3.7-2.4-6.3c0-2.5,0.8-4.6,2.4-6.2c1.6-1.6,3.6-2.4,6.1-2.4C301.8,115.9,303.2,116.2,304.3,116.8z"/>
		<path class="st4" d="M308,115.3c2.6,3.3,3.8,7,3.8,11.1c0,4.2-1.3,8-4,11.4h-2.7c1.3-1.7,2.4-3.5,3.1-5.5s1.1-3.9,1.1-5.8
			c0-1.9-0.3-3.9-1-5.8c-0.7-2-1.6-3.8-2.9-5.5H308z"/>
	</g>
	<g>
		<path class="st2" d="M29,150.7v3.7c-1.6-1-3.4-1.5-5.5-1.5c-1.3,0-2.4,0.3-3.1,0.9c-0.7,0.6-1.1,1.4-1.1,2.3c0,0.5,0.1,1,0.3,1.4
			c0.2,0.4,0.6,0.8,1.2,1.2c0.6,0.4,1,0.7,1.4,0.8s1,0.5,1.9,0.9c0.9,0.4,1.7,0.8,2.2,1.1c0.6,0.3,1.2,0.8,1.9,1.3
			c0.7,0.6,1.2,1.2,1.5,2c0.3,0.8,0.5,1.6,0.5,2.6c0,1.9-0.6,3.5-1.8,4.7c-1.2,1.2-2.9,1.9-4.9,2.1v3.9h-3v-3.9
			c-2-0.2-3.6-0.7-5-1.5v-3.9c1.9,1.4,4.1,2.1,6.6,2.1c1.3,0,2.4-0.3,3.2-0.9c0.8-0.6,1.2-1.5,1.2-2.5c0-0.3,0-0.5-0.1-0.7
			c0-0.2-0.1-0.5-0.3-0.7c-0.1-0.2-0.3-0.4-0.4-0.6c-0.1-0.2-0.3-0.3-0.6-0.5c-0.3-0.2-0.5-0.3-0.6-0.4c-0.2-0.1-0.4-0.3-0.8-0.4
			c-0.4-0.2-0.6-0.3-0.8-0.4c-0.2-0.1-0.5-0.2-0.9-0.4c-0.5-0.2-0.8-0.3-0.9-0.4c-1.8-0.8-3.1-1.7-4.1-2.7c-1-1-1.5-2.3-1.5-4.1
			c0-1.9,0.6-3.4,1.9-4.6c1.3-1.2,3-1.9,5-2.1v-3.9h3.1v3.9C26.8,149.9,28,150.2,29,150.7z"/>
		<path class="st2" d="M32.5,157.7v-3.8l5.9-3.5h3.2V174h-3.5v-19.7L32.5,157.7z"/>
		<path class="st2" d="M63,165.4v3.1h-3.3v5.5h-3.5v-5.5H45.5v-3.1l8.5-15h5.7v15H63z M49.1,165.4h7.1v-12.9L49.1,165.4z"/>
		<path class="st2" d="M70,170.9h10.2v3.1H65.1v-2.9c3-2.2,5.6-4.5,7.6-6.9c2.1-2.4,3.1-4.5,3.1-6.5c0-1.4-0.4-2.4-1.2-3.1
			s-1.9-1.1-3.3-1.1c-1.9,0-3.8,0.7-5.7,2.2v-3.5c1.7-1.3,3.8-2,6.2-2c2.2,0,4,0.6,5.5,1.9c1.4,1.2,2.2,3,2.2,5.3
			C79.5,161.6,76.4,166.1,70,170.9z"/>
	</g>
	<g>
		<path class="st2" d="M167.7,154.6v-3.4c1.5-0.9,3.1-1.3,5-1.3c2.4,0,4.3,0.6,5.6,1.8c1.4,1.2,2,2.7,2,4.5c0,1.3-0.3,2.4-1,3.4
			c-0.6,1-1.6,1.7-2.8,2.2c1.4,0.3,2.4,1,3.2,1.9c0.8,0.9,1.2,2.1,1.2,3.5c0,1.9-0.7,3.5-2.1,4.8c-1.4,1.3-3.3,1.9-5.9,1.9
			c-2.4,0-4.4-0.4-6-1.2v-3.5c1.8,1,3.7,1.4,5.8,1.4c1.4,0,2.5-0.4,3.3-1.1c0.8-0.7,1.2-1.6,1.2-2.7c0-1.2-0.4-2-1.3-2.7
			c-0.9-0.6-2.2-0.9-4-0.9h-1.4v-3h1.4c1.3,0,2.4-0.3,3.3-1s1.4-1.6,1.4-2.7c0-1.2-0.4-2-1.1-2.6c-0.7-0.6-1.7-0.9-3-0.9
			C170.9,153.1,169.3,153.6,167.7,154.6z"/>
		<path class="st2" d="M198.8,150.1v3.4c-0.9-0.5-2-0.7-3.3-0.7c-2.1,0-3.8,0.8-5.1,2.3c-1.3,1.5-2.1,3.4-2.4,5.8
			c1.6-1.5,3.4-2.3,5.5-2.3c2.1,0,3.8,0.7,5.1,2.1c1.2,1.4,1.9,3.2,1.9,5.4c0,2.4-0.7,4.4-2.1,5.9c-1.4,1.5-3.3,2.3-5.6,2.3
			c-2.7,0-4.8-1-6.3-3.1c-1.5-2-2.2-4.7-2.2-8.1c0-3.9,1-7.2,3-9.7c2-2.5,4.7-3.8,8-3.8C196.6,149.5,197.7,149.7,198.8,150.1z
			 M192.8,170.9c1.2,0,2.2-0.4,3-1.3c0.7-0.9,1.1-2.1,1.1-3.5c0-1.4-0.4-2.4-1.1-3.2c-0.7-0.8-1.7-1.2-2.9-1.2c-1.9,0-3.5,0.8-5,2.3
			c0.1,2.3,0.6,4.1,1.5,5.2C190.3,170.3,191.4,170.9,192.8,170.9z"/>
		<path class="st2" d="M201.4,178.1l3.5-8.4h4.4l-4.7,8.4H201.4z"/>
		<path class="st2" d="M224.2,161.8c2.7,0.9,4,2.8,4,5.6c0,2-0.8,3.6-2.3,4.8c-1.5,1.2-3.5,1.8-5.8,1.8c-2.3,0-4.2-0.6-5.7-1.7
			c-1.5-1.2-2.2-2.7-2.2-4.7c0-2.8,1.3-4.7,4-5.7c-1.1-0.5-2-1.2-2.6-2.1c-0.6-0.9-1-2-1-3.2c0-2.1,0.7-3.8,2.2-5
			c1.5-1.2,3.2-1.8,5.3-1.8c2.2,0,4,0.6,5.4,1.7c1.5,1.2,2.2,2.9,2.2,5.1C227.7,159,226.5,160.7,224.2,161.8z M220.1,171
			c1.5,0,2.6-0.4,3.4-1.1c0.8-0.7,1.2-1.6,1.2-2.7c0-1.1-0.4-1.9-1.2-2.7c-0.8-0.7-1.9-1.1-3.4-1.1c-1.4,0-2.5,0.4-3.3,1.2
			c-0.7,0.8-1.1,1.7-1.1,2.8c0,1,0.4,1.8,1.1,2.5C217.6,170.6,218.7,171,220.1,171z M220.1,152.8c-1.2,0-2.2,0.4-2.9,1.1
			c-0.7,0.7-1,1.6-1,2.6c0,1.2,0.4,2.2,1.1,2.8c0.8,0.6,1.7,1,2.9,1c1.1,0,2.1-0.3,2.8-1s1.1-1.6,1.1-2.8c0-1.1-0.3-1.9-1-2.6
			C222.4,153.2,221.4,152.8,220.1,152.8z"/>
		<path class="st2" d="M230.4,157.4v-3.8l5.9-3.5h3.2v23.5H236V154L230.4,157.4z"/>
		<path class="st2" d="M242.6,150.1h15.5v3.1l-9.6,20.5h-3.8l9.6-20.5h-11.8V150.1z"/>
	</g>
	<path class="st5" d="M37.3,36.9l14.5,6.9V72l-14.5-6.9V36.9L37.3,36.9z M59.3,28.6L38,36.2l14.4,6.9l21.2-7.6L59.3,28.6z
		 M58.9,41.6v17.3L74,64.7V36.1L58.9,41.6z"/>
	<g>
	</g>
	<g>
	</g>
	<g>
	</g>
	<g>
	</g>
	<g>
	</g>
	<g>
	</g>
	<g>
	</g>
	<g>
	</g>
	<g>
	</g>
	<g>
	</g>
	<g>
	</g>
	<g>
	</g>
	<g>
	</g>
	<g>
	</g>
	<g>
	</g>
</g>
</svg>
