<?xml version="1.0" encoding="utf-8"?>
<!-- Generator: Adobe Illustrator 22.0.1, SVG Export Plug-In . SVG Version: 6.00 Build 0)  -->
<svg version="1.1" id="Layer_1" xmlns="http://www.w3.org/2000/svg" xmlns:xlink="http://www.w3.org/1999/xlink" x="0px" y="0px"
	 viewBox="0 0 925.5 514.5" style="enable-background:new 0 0 925.5 514.5;" xml:space="preserve">
<style type="text/css">
	.st0{fill:#FE825A;}
	.st1{fill:url(#SVGID_1_);}
</style>
<path class="st0" d="M-108.5,823.1c0.1,0.1,0.2,0.2,0.3,0.2l0.1,0.1L-108.5,823.1z"/>
<linearGradient id="SVGID_1_" gradientUnits="userSpaceOnUse" x1="-9.000000e-02" y1="285.891" x2="873.3179" y2="285.891">
	<stop  offset="0" style="stop-color:#3B95F3"/>
	<stop  offset="0.2432" style="stop-color:#419BF2"/>
	<stop  offset="0.5781" style="stop-color:#51ADF1"/>
	<stop  offset="0.9646" style="stop-color:#6BCAEE"/>
	<stop  offset="1" style="stop-color:#6ECDEE"/>
</linearGradient>
<path class="st1" d="M871.3,508.5c0.6,0.6,1.2,1.3,1.7,2v-64l0.3,0.5c-0.2-0.4,0.2-1,0.1-1.5c-0.1-0.5-0.3-0.9-0.4-1.4
	c-1-3.5-2.6-7-4.7-10c-1-1.4-2.3-2.6-3.6-3.8c-1.1-1.1-2.6-1.9-3.9-2.9L-0.1,57.4v457h873L871.3,508.5z"/>
</svg>
