<?xml version="1.0" encoding="utf-8"?>
<!-- Generator: Adobe Illustrator 22.0.1, SVG Export Plug-In . SVG Version: 6.00 Build 0)  -->
<svg version="1.1" id="Layer_1" xmlns="http://www.w3.org/2000/svg" xmlns:xlink="http://www.w3.org/1999/xlink" x="0px" y="0px"
	 viewBox="0 0 200 200" style="enable-background:new 0 0 200 200;" xml:space="preserve">
<style type="text/css">
	.st0{fill:#4980F9;}
	.st1{fill:#FFFFFF;}
</style>
<path class="st0" d="M124.1,3.1c53.8,13.1,86.3,67.6,72.9,121c-13.1,53.8-67.6,86.3-121,72.9c-53.8-13.1-86.3-67.6-72.9-121
	C16.2,22.1,70.6-10.4,124.1,3.1"/>
<path class="st1" d="M42.1,100.8c0,3.6,0.3,7.3,0.9,10.9l-7.3,1.5c0.6,3.9,1.8,7.9,3.3,11.8l7-2.7c1.2,3.3,3,6.7,4.9,9.7l-6.4,3.9
	c2.1,3.3,4.6,6.7,7.3,9.7l5.5-5.2c2.4,2.7,5.2,5.2,8.2,7.3l-4.6,6.1c3.3,2.4,6.7,4.6,10.3,6.4l3.3-6.7c3.3,1.5,6.7,3,10,3.9
	l-2.1,7.3c3.9,1.2,7.9,1.8,12.1,2.1l0.6-7.6c1.8,0.3,3.6,0.3,5.5,0.3c1.8,0,3.6,0,5.5-0.3l0.6,7.6c3.9-0.3,8.2-1.2,12.1-2.1
	l-2.1-7.3c3.6-0.9,7-2.4,10-3.9l3.3,6.7c3.6-1.8,7.3-3.9,10.3-6.4l-4.6-6.1c3-2.1,5.5-4.6,8.2-7.3l5.5,5.2c2.7-3,5.2-6.4,7.3-9.7
	l-6.4-3.9c1.8-3,3.6-6.4,4.9-9.7l7,2.7c1.5-3.9,2.7-7.9,3.3-11.8l-7.3-1.5c0.6-3.6,0.9-7.3,0.9-10.9l0,0h7.6c0-4.3-0.3-8.2-1.2-12.1
	l-7.3,1.5c-0.6-3.6-1.8-7-3-10.6l7-2.7c-1.5-3.9-3.3-7.6-5.5-10.9l-6.4,3.9c-1.8-3-4.3-6.1-6.7-8.8l5.5-5.2c-2.7-3-5.8-5.8-9.1-8.2
	l-4.6,6.1c-3-2.1-6.1-4.3-9.4-5.8l3.3-6.7c-3.6-1.8-7.6-3.3-11.5-4.6l-2.1,7.3c-3.6-0.9-7-1.5-10.6-2.1l0.6-7.6
	c-2.1-0.3-3.9-0.3-6.1-0.3s-4.3,0-6.4,0.3l0.6,7.6c-3.6,0.3-7.3,0.9-10.6,2.1l-0.6-7.6c-3.9,1.2-7.9,2.7-11.5,4.6l3.3,6.7
	c-3.3,1.5-6.4,3.6-9.1,5.8l-4.6-6.1c-3.3,2.4-6.4,5.2-9.1,8.2l5.5,5.2c-2.4,2.7-4.6,5.5-6.7,8.8l-6.4-3.9c-2.1,3.6-3.9,7.3-5.5,10.9
	l7,2.7c-1.2,3.3-2.4,7-3,10.6l-7.3-1.5c-0.6,3.9-1.2,8.2-1.2,12.1l0,0L42.1,100.8z M108,147.3l-0.3-2.7c4.3-0.6,8.2-1.8,12.1-3.6
	l1.2,2.4C116.8,145.4,112.2,146.7,108,147.3L108,147.3z M148.4,100.5c0,4.6-0.6,9.1-1.8,13.4l-2.7-0.9c1.2-3.9,1.8-8.2,1.8-12.4l0,0
	L148.4,100.5L148.4,100.5L148.4,100.5z M140.8,75c2.4,3.6,4.3,7.9,5.5,12.1l-2.4,0.9c-1.2-3.9-3-7.9-5.2-11.5L140.8,75z
	 M138.7,124.5l2.4,1.5c-2.4,3.6-5.5,7.3-8.8,10l-1.8-2.1C133.5,131.5,136.2,128.1,138.7,124.5L138.7,124.5z M120.7,57.7
	c3.9,1.8,7.9,4.3,11.2,7.3l-1.8,2.1c-3.3-2.7-6.7-5.2-10.6-6.7L120.7,57.7z M113.5,89h6.7l8.5,12.8V89h6.7V112h-6.7l-8.5-12.4V112
	h-6.7C113.5,112,113.5,89,113.5,89z M101.3,53.4c2.1,0,4.6,0.3,6.7,0.6l-0.3,2.7c-4.3-0.6-8.5-0.6-12.8,0L94.3,54
	C96.8,53.4,98.9,53.4,101.3,53.4L101.3,53.4z M87.6,89h7v14c0,1.2,0.3,2.1,0.9,3c0.6,0.9,1.5,0.9,3,0.9c1.2,0,2.1-0.3,2.7-0.9
	c0.6-0.6,0.9-1.8,0.9-3V89h7.3v13.7c0,1.2-0.3,2.7-0.6,3.9c-0.3,1.2-1.2,2.1-2.1,3s-1.8,1.5-2.7,1.8c-1.5,0.6-3,0.9-4.9,0.9
	c-1.2,0-2.4,0-3.6-0.3c-1.2-0.3-2.4-0.6-3.3-0.9c-0.9-0.6-1.8-1.2-2.4-2.1c-0.6-0.9-1.2-1.8-1.5-2.7c-0.3-1.5-0.6-2.7-0.6-3.9V89
	L87.6,89z M94.9,144.5l-0.3,2.7c-4.6-0.6-8.8-1.8-12.8-3.6l1.2-2.4C86.7,142.7,90.7,143.9,94.9,144.5z M81.6,57.7l1.2,2.4
	c-3.9,1.8-7.3,3.9-10.6,7L70.3,65C73.7,61.9,77.3,59.5,81.6,57.7L81.6,57.7z M67,89h17.6v4.9H74.3v3.9h8.8v4.6h-8.8v9.4H67V89z
	 M72.2,134.2l-1.8,2.1c-3.3-3-6.4-6.4-8.8-10l2.4-1.5C66.1,128.1,68.8,131.5,72.2,134.2z M61.5,75l2.4,1.5
	c-2.4,3.6-3.9,7.3-5.2,11.5l-2.7-0.9C57,83.2,59.1,78.9,61.5,75L61.5,75z M56.7,100.8c0,4.3,0.6,8.5,1.8,12.4l-2.7,0.9
	c-1.2-4.3-1.8-8.8-1.8-13.4L56.7,100.8z"/>
<g>
</g>
<g>
</g>
<g>
</g>
<g>
</g>
<g>
</g>
<g>
</g>
<g>
</g>
<g>
</g>
<g>
</g>
<g>
</g>
<g>
</g>
<g>
</g>
<g>
</g>
<g>
</g>
<g>
</g>
</svg>
