<?xml version="1.0" encoding="utf-8"?>
<!-- Generator: Adobe Illustrator 22.0.1, SVG Export Plug-In . SVG Version: 6.00 Build 0)  -->
<svg version="1.1" id="Layer_1" xmlns="http://www.w3.org/2000/svg" xmlns:xlink="http://www.w3.org/1999/xlink" x="0px" y="0px"
	 viewBox="0 0 200 200" style="enable-background:new 0 0 200 200;" xml:space="preserve">
<style type="text/css">
	.st0{fill:#4980F9;}
	.st1{fill:#FFFFFF;}
</style>
<path class="st0" d="M124.1,3.1c53.8,13.1,86.3,67.6,72.9,121c-13.1,53.8-67.6,86.3-121,72.9C22.2,183.9-10.3,129.4,3.1,76
	C16.2,22.1,70.6-10.4,124.1,3.1"/>
<path class="st1" d="M139.5,86.5c-11.1-7-25-7.7-36.8-2.2l0,0c-6.4,2.9-13.8,1.7-19-3c-0.2-0.2-0.5-0.4-0.7-0.7L59.4,57c0,0,0,0,0,0
	c-1.5-1.7-2.2-4-2-6.2c0,0,0,0,0,0c0.8-4.4-2.1-8.6-6.4-9.4c-4.4-0.8-8.6,2.1-9.4,6.4s2.1,8.6,6.4,9.4c1,0.2,2,0.2,3,0l0,0
	c2.2-0.2,4.5,0.4,6.3,1.9c0,0,0,0,0,0L81,82.9c0.2,0.2,0.4,0.4,0.5,0.6c4.7,5.2,5.8,12.7,2.9,19l0,0c-5.5,11.7-4.8,25.6,2.2,36.8
	c1.5,2.4,3.3,4.7,5.3,6.7c6.6,6.6,15.4,10.5,24,11.3c2.3,0.2,34.6,0.1,34.6,0.1c1.7,0,3.5-0.9,4.8-2.1s2.3-3.2,2.3-5v-31.3
	c0-1.6-0.3-3.8-0.4-4.1c-0.8-8.7-4.4-16.5-11.1-23.1C144.2,89.8,141.9,88,139.5,86.5 M141.5,112.7c0.9,4.5,1,6.4,1,6.7v15.8
	c0,1.8-0.8,3.8-2,5c-1.2,1.2-3.3,2-5,2H120c-0.3,0-3.9,0-7.2-1c-3.8-1.1-7.3-3.1-10.1-6c-9.1-9-9-23.8,0-32.9s23.8-9.1,32.9,0
	C138.5,105.4,140.8,108.9,141.5,112.7"/>
</svg>
