<?xml version="1.0" encoding="utf-8"?>
<!-- Generator: Adobe Illustrator 22.0.1, SVG Export Plug-In . SVG Version: 6.00 Build 0)  -->
<svg version="1.1" id="Layer_1" xmlns="http://www.w3.org/2000/svg" xmlns:xlink="http://www.w3.org/1999/xlink" x="0px" y="0px"
	 viewBox="0 0 200 200" style="enable-background:new 0 0 200 200;" xml:space="preserve">
<style type="text/css">
	.st0{fill:#4980F9;}
	.st1{fill:#FFFFFF;}
</style>
<path class="st0" d="M124.1,3.1c53.8,13.1,86.3,67.6,72.9,121c-13.1,53.8-67.6,86.3-121,72.9C22.2,183.9-10.3,129.4,3.1,76
	C16.2,22.1,70.6-10.4,124.1,3.1"/>
<path class="st1" d="M161.9,96.2c0-7.8-21.3-14.4-49.7-15.9l0-12.5h35.4v-26H50.7v26h35.4v12.6C58.3,82,37.5,88.4,37.5,96.2
	c0,7.7,20.8,14.2,48.7,15.8v44.9h26v-44.8C140.5,110.6,161.9,104,161.9,96.2z M99.7,103.9c-30.4,0-55.1-4.7-55.1-10.5
	c0-4.9,17.7-9.1,41.6-10.2v3h0v12.1c4.3,0.2,8.8,0.4,13.5,0.4c4.3,0,8.5-0.1,12.5-0.3V83.1c24.4,1.1,42.6,5.3,42.6,10.3
	C154.8,99.2,130.1,103.9,99.7,103.9z"/>
</svg>
