<?xml version="1.0" encoding="utf-8"?>
<!-- Generator: Adobe Illustrator 22.0.1, SVG Export Plug-In . SVG Version: 6.00 Build 0)  -->
<svg version="1.1" id="Layer_1" xmlns="http://www.w3.org/2000/svg" xmlns:xlink="http://www.w3.org/1999/xlink" x="0px" y="0px"
	 viewBox="0 0 200 200" style="enable-background:new 0 0 200 200;" xml:space="preserve">
<style type="text/css">
	.st0{fill:#4980F9;}
	.st1{fill:#FFFFFF;}
</style>
<path class="st0" d="M124.1,3.1c53.8,13.1,86.3,67.6,72.9,121c-13.1,53.8-67.6,86.3-121,72.9c-53.8-13.1-86.3-67.6-72.9-121
	C16.2,22.1,70.6-10.4,124.1,3.1"/>
<path class="st1" d="M144.8,87.8c1.9-14-8.4-21.1-22.7-26.3l4.5-18.8l-11.4-2.9l-4.5,18.2c-2.9-0.6-6.2-1.3-9.1-2.3l4.5-18.5
	l-11.4-2.9l-4.5,18.8c-2.6-0.6-4.9-1-7.1-1.6l0,0l-15.6-3.9l-2.9,12.3c0,0,8.4,1.9,8.1,1.9c4.5,1.3,5.5,4.2,5.2,6.5l-5.2,21.4
	c0.3,0,0.6,0.3,1.3,0.3c-0.3,0-0.6-0.3-1.3-0.3l-7.8,30.5c-0.6,1.3-1.9,3.6-5.2,2.6c0,0.3-8.4-1.9-8.4-1.9l-5.5,13l14.9,3.6
	c2.9,0.6,5.5,1.3,8.1,1.9l-4.9,18.8l11.4,2.9l4.5-18.8c3.2,1,6.2,1.6,9.1,2.3l-4.5,18.5l11.4,2.9l4.9-18.8
	c19.5,3.6,34.1,2.3,40.3-15.3c4.9-14.3-0.3-22.4-10.4-27.6C137.6,103.1,143.5,97.9,144.8,87.8z M118.8,124.5
	c-3.6,14.3-27.3,6.5-35.1,4.5l6.2-25C97.7,106,122.4,109.6,118.8,124.5z M122.4,87.8c-3.2,13-23.1,6.5-29.6,4.9L98.3,70
	C104.8,71.3,125.6,74.2,122.4,87.8z"/>
<g>
</g>
<g>
</g>
<g>
</g>
<g>
</g>
<g>
</g>
<g>
</g>
<g>
</g>
<g>
</g>
<g>
</g>
<g>
</g>
<g>
</g>
<g>
</g>
<g>
</g>
<g>
</g>
<g>
</g>
</svg>
